<svg width="24" height="24" fill="none" xmlns="http://www.w3.org/2000/svg"><path fill-rule="evenodd" clip-rule="evenodd" d="M7.77 4.44c0 1.344-1.066 2.442-2.387 2.442C4.066 6.882 3 5.784 3 4.44 3 3.094 4.066 2 5.383 2 6.703 2 7.77 3.094 7.77 4.44zm12.874 9.267V22h-3.812v-8.293c0-.387-.384-1.03-.656-1.18-.354-.207-1.2-.222-1.587-.034l-1.568.772V22H9.203V8.34h3.818v.601c1.502-.705 3.602-.637 5.027.178 1.502.868 2.596 2.79 2.596 4.588zM3.472 22h3.824V8.34H3.472V22z" fill="#282828"/><path d="M20.644 22v.4h.4V22h-.4zm-3.812 0h-.4v.4h.4V22zm-.656-9.474-.201.346.006.003.195-.349zm-1.587-.033-.174-.36h-.002l.176.36zm-1.568.772-.177-.359-.223.11v.25h.4zm0 8.735v.4h.4V22h-.4zm-3.818 0h-.4v.4h.4V22zm0-13.66v-.4h-.4v.4h.4zm3.818 0h.4v-.4h-.4v.4zm0 .601h-.4v.63l.57-.268-.17-.362zm5.027.178.2-.347h-.002l-.198.347zM3.472 22h-.4v.4h.4V22zm3.824 0v.4h.4V22h-.4zm0-13.66h.4v-.4h-.4v.4zm-3.824 0v-.4h-.4v.4h.4zm3.898-3.9c0 1.133-.897 2.042-1.987 2.042v.8c1.55 0 2.787-1.286 2.787-2.842h-.8zM5.383 6.482C4.297 6.482 3.4 5.573 3.4 4.44h-.8c0 1.555 1.235 2.842 2.783 2.842v-.8zM3.4 4.44c0-1.135.896-2.04 1.983-2.04v-.8C3.836 1.6 2.6 2.882 2.6 4.44h.8zM5.383 2.4c1.091 0 1.987.906 1.987 2.04h.8c0-1.559-1.237-2.84-2.787-2.84v.8zm14.86 11.307V22h.8v-8.293h-.8zm.4 7.893h-3.81v.8h3.81v-.8zm-3.41.4v-8.293h-.8V22h.8zm0-8.293c0-.298-.137-.628-.28-.877a2.466 2.466 0 0 0-.255-.369 1.248 1.248 0 0 0-.327-.284l-.39.698.01.007a.786.786 0 0 1 .098.097c.055.066.115.152.17.248.118.206.173.39.173.48h.8zm-.855-1.527c-.266-.154-.65-.212-.976-.218-.33-.006-.711.037-.987.17l.349.72c.11-.053.344-.096.623-.09.282.005.5.058.588.11l.403-.691zm-1.966-.046-1.568.772.354.718 1.568-.772-.354-.718zm-1.791 1.131V22h.8v-8.735h-.8zm.4 8.335H9.203v.8h3.818v-.8zm-3.418.4V8.34h-.8V22h.8zm-.4-13.26h3.818v-.8H9.203v.8zm3.418-.4v.601h.8v-.6h-.8zm.57.963c1.387-.651 3.35-.586 4.658.163l.397-.695c-1.54-.881-3.778-.951-5.395-.192l.34.724zm4.656.162c1.375.794 2.397 2.583 2.397 4.242h.8c0-1.935-1.167-3.993-2.796-4.935l-.4.693zM3.472 22.4h3.824v-.8H3.472v.8zm4.224-.4V8.34h-.8V22h.8zm-.4-14.06H3.472v.8h3.824v-.8zm-4.224.4V22h.8V8.34h-.8z" fill="#fff"/></svg>