<svg width="24" height="24" fill="none" xmlns="http://www.w3.org/2000/svg"><path fill-rule="evenodd" clip-rule="evenodd" d="M6.156 8.236h11.687V2.071H6.156v6.165zm1.04-1.04h9.608V3.111H7.197v4.085z" fill="#282828"/><path fill-rule="evenodd" clip-rule="evenodd" d="M6.086 2h11.828v6.307H6.086V2zm.141.142v6.023h11.546V2.142H6.227zm.899.898h9.75v4.227h-9.75V3.04zm.142.142v3.943h9.465V3.182H7.268zM6.991 20.983H17.01v-6.619H6.99v6.62zm10.852.946H6.156v-8.51h11.687v8.51z" fill="#282828"/><path fill-rule="evenodd" clip-rule="evenodd" d="M6.086 13.348h11.828V22H6.086v-8.652zm.141.141v8.37h11.546v-8.37H6.227zm.693.804h10.16v6.761H6.92v-6.76zm.142.142v6.478h9.876v-6.478H7.062z" fill="#282828"/><path fill-rule="evenodd" clip-rule="evenodd" d="M8.981 19.437h6.237v-1.04H8.981v1.04z" fill="#282828"/><path fill-rule="evenodd" clip-rule="evenodd" d="M8.91 18.326h6.38v1.182H8.91v-1.182zm.142.142v.898h6.096v-.898H9.052zM8.97 17.063h6.237v-1.04H8.97v1.04z" fill="#282828"/><path fill-rule="evenodd" clip-rule="evenodd" d="M8.899 15.952h6.379v1.182h-6.38v-1.182zm.142.142v.898h6.095v-.898H9.041zM6.156 17.53H3.521a.411.411 0 0 1-.41-.411V6.69c0-.226.184-.41.41-.41h2.861V5.24H3.521c-.8 0-1.45.65-1.45 1.45V17.12c0 .8.65 1.45 1.45 1.45h2.635v-1.04z" fill="#282828"/><path fill-rule="evenodd" clip-rule="evenodd" d="M2 6.69c0-.839.682-1.521 1.52-1.521h2.933v1.182H3.521a.34.34 0 0 0-.34.34v10.428c0 .187.153.34.34.34h2.706v1.181H3.521C2.682 18.64 2 17.958 2 17.12V6.69zm1.52-1.38a1.38 1.38 0 0 0-1.378 1.38V17.12c0 .76.619 1.38 1.379 1.38h2.565V17.6H3.52a.482.482 0 0 1-.482-.481V6.69c0-.265.216-.48.482-.48h2.79v-.9h-2.79zM17.843 5.24v1.04h2.581a.41.41 0 0 1 .41.41V17.12c0 .226-.184.41-.41.41h-2.58v1.04h2.58c.8 0 1.45-.65 1.45-1.45V6.691c0-.8-.65-1.45-1.45-1.45h-2.58z" fill="#282828"/></svg>