<?xml version="1.0" standalone="no"?>
<!DOCTYPE svg PUBLIC "-//W3C//DTD SVG 1.1//EN" "http://www.w3.org/Graphics/SVG/1.1/DTD/svg11.dtd" >
<svg xmlns="http://www.w3.org/2000/svg" xmlns:xlink="http://www.w3.org/1999/xlink" version="1.1">
<metadata>
Created by FontForge 20190801 at Mon Feb  1 20:39:12 2021
 By Unknown
copyright missing
</metadata>
<defs>
<font id="HBRIcons-Regular" horiz-adv-x="1589" >
  <font-face
    font-family="HBR Icons"
    font-weight="400"
    font-stretch="normal"
    units-per-em="1000"
    panose-1="0 0 5 0 0 0 0 0 0 0"
    ascent="800"
    descent="-200"
    bbox="0.056537 -300 2449 1248"
    underline-thickness="50"
    underline-position="-134"
    unicode-range="U+0020-E091"
  />
<missing-glyph horiz-adv-x="155"
 />
    <glyph glyph-name=".notdef" horiz-adv-x="155"
 />
    <glyph glyph-name="uniE073" unicode="&#xe073;" horiz-adv-x="979"
d="M498 887c28 -13 37 -43 37 -79c0 -76 -45 -184 -45 -221c0 -42 34 -78 54 -105c25 -36 53 -65 72 -99c79 -1 160 3 228 -30c31 -15 85 -55 85 -105c0 -15 -5 -32 -17 -48c-20 -27 -45 -37 -71 -37c-95 0 -215 132 -241 158c-70 -2 -246 -31 -285 -79
c-50 -59 -102 -155 -183 -182c-10 -4 -20 -5 -29 -5c-37 0 -58 28 -52 66c6 35 34 78 95 117c139 87 105 4 200 163c53 91 69 135 69 169c0 31 -12 55 -22 97c-5 25 -10 54 -11 84v14c0 68 18 133 72 133c12 0 27 -4 44 -11zM466 837c-10 -5 -29 20 -29 -81
c0 -31 4 -45 15 -72c6 29 21 78 21 116c0 14 -2 27 -7 37zM455 500l-78 -162l170 36c-13 24 -73 109 -92 126zM681 324c13 -11 99 -103 154 -103c10 0 19 3 27 11c7 7 11 14 11 21c0 46 -149 74 -192 71zM215 210c-26 -9 -38 -20 -60 -38c-31 -23 -29 -14 -45 -57
c46 18 83 61 105 95z" />
    <glyph glyph-name="uniE083" unicode="&#xe083;" horiz-adv-x="886"
d="M50 716v153c106 0 209 -20 306 -61c94 -40 178 -97 250 -169s129 -156 169 -250c41 -97 61 -200 61 -306h-153c0 85 -17 168 -50 246c-32 76 -77 143 -136 201c-58 59 -125 104 -201 136c-78 33 -161 50 -246 50zM50 433v153c66 -1 130 -14 190 -40
c61 -26 116 -63 163 -110c48 -47 85 -102 110 -163c26 -60 39 -124 41 -190h-154c-3 92 -40 179 -105 244c-66 66 -153 103 -245 106zM146 274c52 0 95 -43 95 -95c0 -53 -43 -96 -95 -96c-53 0 -96 43 -96 96c0 52 43 95 96 95z" />
    <glyph glyph-name="uniE013" unicode="&#xe013;"
d="M795 -269c100 0 198 20 290 59c88 37 168 91 236 159c69 69 122 148 160 237c39 92 58 190 58 290c0 101 -19 198 -58 290c-38 89 -91 168 -160 237c-68 68 -148 122 -236 159c-92 39 -190 59 -290 59c-101 0 -198 -20 -290 -59c-89 -37 -169 -91 -237 -159
c-68 -69 -122 -148 -159 -237c-39 -92 -59 -189 -59 -290c0 -100 20 -198 59 -290c37 -89 91 -168 159 -237c68 -68 148 -122 237 -159c92 -39 189 -59 290 -59zM795 1101c84 0 166 -17 243 -49c74 -32 141 -77 198 -134c58 -58 103 -124 134 -199c33 -77 49 -159 49 -243
s-16 -166 -49 -243c-31 -75 -76 -141 -134 -199c-57 -57 -124 -102 -198 -134c-77 -32 -159 -49 -243 -49c-85 0 -166 17 -243 49c-75 32 -142 77 -199 134c-57 58 -102 124 -134 199c-32 77 -49 159 -49 243s17 166 49 243c32 75 77 141 134 199c57 57 124 102 199 134
c77 32 158 49 243 49zM447 435l236 -262l425 476l-89 80l-336 -376l-147 163z" />
    <glyph glyph-name="uniE003" unicode="&#xe003;" horiz-adv-x="1564"
d="M1457 761c38 -90 57 -186 57 -285s-19 -195 -57 -285c-37 -87 -90 -165 -157 -233c-67 -67 -146 -120 -233 -157c-90 -38 -186 -57 -285 -57s-195 19 -285 57c-87 37 -165 90 -233 157c-67 68 -120 146 -156 233c-39 90 -58 186 -58 285s19 195 58 285
c36 87 89 165 156 233c68 67 146 120 233 157c90 38 186 57 285 57s195 -19 285 -57c87 -37 166 -90 233 -157c67 -68 120 -146 157 -233zM1346 238c32 75 48 155 48 238s-16 163 -48 238c-31 73 -75 139 -131 195s-122 100 -195 131c-75 32 -155 48 -238 48
s-163 -16 -238 -48c-73 -31 -138 -75 -195 -131c-56 -56 -100 -122 -131 -195c-32 -75 -48 -155 -48 -238s16 -163 48 -238c31 -73 75 -139 131 -195c57 -56 122 -100 195 -131c75 -32 155 -48 238 -48s163 16 238 48c73 31 139 75 195 131s100 122 131 195zM842 777v-241
h242v-120h-242v-241h-120v241h-241v120h241v241h120z" />
    <glyph glyph-name="uniE039" unicode="&#xe039;" horiz-adv-x="1212"
d="M1118 692c29 -68 44 -141 44 -216s-15 -148 -44 -216c-28 -67 -68 -126 -119 -177s-111 -91 -177 -119c-68 -29 -141 -44 -216 -44s-148 15 -216 44c-67 28 -126 68 -177 119s-91 110 -119 177c-29 68 -44 141 -44 216s15 148 44 216c28 67 68 126 119 177
s110 91 177 119c68 29 141 44 216 44s148 -15 216 -44c66 -28 126 -68 177 -119s91 -110 119 -177zM655 748h-98v-334h98v334zM606 189c39 0 71 32 71 71s-32 71 -71 71c-40 0 -72 -32 -72 -71s32 -71 72 -71z" />
    <glyph glyph-name="uniE070" unicode="&#xe070;" horiz-adv-x="1130"
d="M50 990h825v-89h205v-939h-790v164h-240v864zM821 180v756h-717v-756h717zM1026 18v829h-151v-721h-531v-108h682zM258 747h388v-54h-388v54zM258 585h388v-54h-388v54zM258 423h235v-54h-235v54z" />
    <glyph glyph-name="uniE049" unicode="&#xe049;" horiz-adv-x="975"
d="M50 658l451 -436l424 439l-72 69l-354 -367l-379 367z" />
    <glyph glyph-name="uniE048" unicode="&#xe048;" horiz-adv-x="608"
d="M50 490l436 -452l72 70l-367 379l367 355l-69 72z" />
    <glyph glyph-name="uniE002" unicode="&#xe002;" horiz-adv-x="608"
d="M50 108l72 -70l436 452l-439 424l-69 -72l367 -355z" />
    <glyph glyph-name="uniE050" unicode="&#xe050;" horiz-adv-x="975"
d="M50 294l451 436l424 -439l-72 -69l-354 367l-379 -367z" />
    <glyph glyph-name="uniE028" unicode="&#xe028;" horiz-adv-x="1064"
d="M50 521l341 -377l623 698l-105 94l-519 -582l-236 261z" />
    <glyph glyph-name="circle" unicode="&#xe027;" horiz-adv-x="985"
d="M492 920c245 0 443 -199 443 -444c0 -243 -198 -444 -443 -444c-244 0 -442 201 -442 444c0 245 198 444 442 444z" />
    <glyph glyph-name="uniE081" unicode="&#xe081;"
d="M1481 766c39 -92 58 -189 58 -290c0 -100 -19 -198 -58 -290c-38 -88 -91 -168 -160 -236c-68 -69 -148 -122 -236 -160c-92 -39 -190 -59 -290 -59c-101 0 -198 20 -290 59c-89 38 -169 91 -237 160c-68 68 -122 148 -159 236c-39 92 -59 190 -59 290
c0 101 20 198 59 290c37 89 91 168 159 237c68 68 148 122 237 159c92 39 189 59 290 59c100 0 198 -20 290 -59c88 -37 168 -91 236 -159c69 -69 122 -148 160 -237zM447 435l236 -262l425 476l-89 80l-336 -376l-147 163z" />
    <glyph glyph-name="uniE080" unicode="&#xe080;"
d="M795 -269c100 0 198 20 290 59c88 38 168 91 236 160c69 68 122 148 160 236c39 92 58 190 58 290c0 101 -19 198 -58 290c-38 89 -91 168 -160 237c-68 68 -148 122 -236 159c-92 39 -190 59 -290 59c-101 0 -198 -20 -290 -59c-89 -37 -169 -91 -237 -159
c-68 -69 -122 -148 -159 -237c-39 -92 -59 -189 -59 -290c0 -100 20 -198 59 -290c37 -88 91 -168 159 -236c68 -69 148 -122 237 -160c92 -39 189 -59 290 -59zM795 1101c84 0 166 -17 243 -49c74 -32 141 -77 198 -134c58 -57 103 -124 134 -199c33 -77 49 -158 49 -243
c0 -84 -16 -166 -49 -243c-31 -74 -76 -141 -134 -199c-57 -57 -124 -102 -198 -133c-77 -33 -159 -50 -243 -50c-85 0 -166 17 -243 50c-75 31 -142 76 -199 133c-57 58 -102 125 -134 199c-32 77 -49 159 -49 243c0 85 17 166 49 243c32 75 77 142 134 199
s124 102 199 134c77 32 158 49 243 49z" />
    <glyph glyph-name="uniE026" unicode="&#xe026;" horiz-adv-x="1015"
d="M508 912c116 0 226 -45 307 -128c83 -81 128 -191 128 -307s-45 -225 -128 -308c-81 -84 -191 -129 -307 -129s-225 45 -308 129c-83 83 -127 192 -127 308s44 226 127 307c83 83 192 128 308 128zM508 868c-105 0 -203 -41 -277 -115c-74 -73 -115 -172 -115 -276
c0 -105 41 -203 115 -277s172 -116 277 -116c104 0 203 42 276 116c74 74 115 172 115 277c0 104 -41 203 -115 276c-73 74 -172 115 -276 115z" />
    <glyph glyph-name="uniE012" unicode="&#xe012;" horiz-adv-x="964"
d="M843 908l71 -71l-361 -361l361 -361l-71 -71l-361 361l-361 -361l-71 71l361 361l-361 361l71 71l361 -361z" />
    <glyph glyph-name="uniE017" unicode="&#xe017;" horiz-adv-x="1640"
d="M151 1238h1338c55 0 101 -46 101 -101v-961c0 -55 -46 -101 -101 -101h-286v-361l-457 361h-595c-56 0 -101 46 -101 101v961c0 55 45 101 101 101zM1489 1183h-1338c-26 0 -47 -21 -47 -46v-961c0 -25 21 -47 47 -47h615l383 -303v303h340c26 0 47 22 47 47v961
c0 25 -21 46 -47 46z" />
    <glyph glyph-name="uniE090" unicode="&#xe090;" horiz-adv-x="599"
d="M549 226h-410v17h381l-470 470l12 12l470 -469v381h17v-411z" />
    <glyph glyph-name="uniE069" unicode="&#xe069;" horiz-adv-x="1333"
d="M1182 941l87 -88c19 -19 19 -51 -1 -71l-462 -460c-20 -19 -52 -19 -71 0l-87 88c-19 19 -19 51 0 70l463 461c19 19 51 19 71 0zM572 372l123 -121c14 -15 9 -27 -11 -27l-100 -1c-21 0 -38 17 -38 38v99c-1 21 12 26 26 12zM84 205h368c19 0 34 -15 34 -34
s-15 -34 -34 -34h-368c-19 0 -34 15 -34 34s15 34 34 34z" />
    <glyph glyph-name="uniE076" unicode="&#xe076;" horiz-adv-x="1321"
d="M61 514l403 389l48 -50l-377 -365l377 -390l-50 -49l-402 415c-7 7 -10 16 -10 25c0 10 4 18 11 25zM809 853l49 50l403 -389c6 -7 10 -15 10 -25v-3c0 -8 -4 -16 -9 -22l-402 -415l-50 49l377 390z" />
    <glyph glyph-name="uniE072" unicode="&#xe072;" horiz-adv-x="781"
d="M686 554l22 -22c31 -31 31 -82 0 -113l-261 -260c-31 -31 -82 -31 -113 0l-261 260c-31 31 -31 82 0 113l261 261c31 31 82 31 113 0l164 -164l-224 -225l-70 69l147 147l-74 74l-221 -221l218 -218z" />
    <glyph glyph-name="uniE032" unicode="&#xe032;" horiz-adv-x="201"
d="M52 694h96l-22 -298h-52zM100 357c29 0 51 -21 51 -50s-22 -49 -51 -49s-50 20 -50 49s21 50 50 50z" />
    <glyph glyph-name="uniE024" unicode="&#xe024;" horiz-adv-x="1302"
d="M705 -161c14 0 27 8 33 21c2 5 4 12 4 18v166h467c24 0 43 19 43 43v774c0 24 -19 43 -43 43h-644l-66 81c-9 12 -25 20 -40 20h-366c-24 0 -43 -20 -43 -43v-875c0 -24 19 -43 43 -43h441l140 -188c8 -11 19 -17 31 -17zM543 114h-423v821h330l65 -82
c10 -11 26 -19 41 -19h626v-720h-467c-24 0 -43 -19 -43 -43v-95l-88 118c-9 12 -25 20 -41 20zM250 628h761v70h-761v-70zM250 429h761v70h-761v-70zM250 229h761v70h-761v-70z" />
    <glyph glyph-name="uniE034" unicode="&#xe034;" horiz-adv-x="1368"
d="M749 46h526c23 0 43 20 43 43v778c0 24 -20 43 -43 43h-1122c-24 0 -43 -19 -43 -43v-354h70v327h1068v-724h-499v-70zM100 -36h451c27 0 50 22 50 49v306c0 28 -23 50 -50 50h-451c-28 0 -50 -22 -50 -50v-306c0 -27 22 -49 50 -49zM531 34h-411v265h411v-265z" />
    <glyph glyph-name="uniE021" unicode="&#xe021;" horiz-adv-x="568"
d="M188 436v-410h165v410h139l21 161h-159v102c0 47 13 78 79 78h85v144c-41 4 -83 6 -124 6c-122 0 -206 -75 -206 -212v-118h-138v-161h138z" />
    <glyph glyph-name="uniE019" unicode="&#xe019;" horiz-adv-x="1436"
d="M650 896v-852h216v338h303v-338h217v852h-217v-325h-303v325h-216zM50 540v-496h126v198h177v-198h126v496h-126v-188h-177v188h-126z" />
    <glyph glyph-name="uniE035" unicode="&#xe035;" horiz-adv-x="1062"
d="M887 832h98c15 0 27 -12 27 -27v-678c0 -15 -12 -28 -27 -28h-435v-55c0 -16 -12 -28 -27 -28h-366c-22 0 -49 11 -69 28c-25 22 -38 51 -38 82v13v671c0 60 49 110 110 110c9 0 36 0 119 -47c27 -15 50 -30 63 -39c100 44 181 47 260 49c80 3 156 6 253 50
c7 3 15 3 22 -1c6 -5 10 -12 10 -19v-81v0zM363 795v-597c101 44 178 46 254 48c71 3 138 5 224 41l1 592c-90 -35 -166 -38 -239 -41c-77 -2 -149 -5 -240 -43zM95 330v-109c20 16 45 22 72 17c7 -1 30 -5 110 -51c15 -9 29 -17 41 -25v634c-12 8 -36 23 -62 38
c-65 37 -89 41 -96 41c-36 0 -65 -29 -65 -65v-57l8 5c22 12 48 16 76 11c21 -4 44 -17 64 -30v-57c-20 15 -51 39 -72 43c-17 3 -59 5 -76 -45v-108c2 2 5 4 8 5c22 13 48 17 76 12c21 -4 44 -17 64 -31v-56c-20 15 -51 39 -72 43c-17 3 -59 5 -76 -45v-98c2 2 5 4 8 5
c22 13 48 17 76 12c21 -4 44 -17 64 -31v-56c-20 15 -51 39 -72 43c-17 3 -59 5 -76 -45zM355 144h612v643h-80c-1 -59 -1 -182 -1 -514c0 -9 -5 -17 -13 -21c-101 -46 -179 -48 -255 -51c-81 -2 -157 -4 -263 -57zM762 749v-47c-57 -14 -110 -16 -162 -18
c-54 -3 -105 -5 -160 -19v46c55 13 107 15 158 18c55 2 108 4 164 20zM762 579v-47c-57 -14 -110 -16 -162 -18c-54 -3 -105 -5 -160 -19v46c55 13 107 15 158 17c55 3 108 5 164 21zM762 408v-47c-55 -13 -107 -15 -158 -17c-55 -3 -108 -5 -164 -20v46
c57 14 110 16 162 18c53 3 105 5 160 20zM157 61h348v38h-159c-8 0 -16 3 -22 6c-49 32 -137 84 -165 89c-3 0 -6 1 -10 1c-11 0 -21 -4 -29 -11c-18 -15 -25 -41 -25 -58c0 -23 12 -39 22 -48c14 -12 31 -17 40 -17z" />
    <glyph glyph-name="uniE089" unicode="&#xe089;" horiz-adv-x="995"
d="M470 994h65v-690l226 235l46 -44l-305 -318l-304 318l47 44l225 -235v690zM50 219h64v-145c0 -29 23 -52 52 -52h663c28 0 52 23 52 52v118h64v-118c0 -64 -52 -116 -116 -116h-663c-64 0 -116 52 -116 116v145z" />
    <glyph glyph-name="uniE036" unicode="&#xe036;" horiz-adv-x="981"
d="M471 989h49v-711l240 250l35 -34l-299 -312l-300 312l36 34l239 -250v711zM50 217h49v-145c0 -33 27 -60 60 -60h664c33 0 60 27 60 60v118h48v-118c0 -60 -48 -109 -108 -109h-664c-60 0 -109 49 -109 109v145z" />
    <glyph glyph-name="uniE084" unicode="&#xe084;" horiz-adv-x="977"
d="M671 919c23 0 45 -5 65 -16c19 -12 35 -28 46 -49c12 -22 19 -50 19 -80c0 -29 -7 -60 -19 -90h145v-651h-877v651h155c-12 31 -18 63 -18 93c0 29 6 56 18 77s27 37 47 49c19 11 41 16 65 16c21 -1 43 -6 64 -17c41 -19 78 -55 104 -99l9 -17c2 6 5 11 9 17
c25 44 62 80 103 99c22 11 43 16 65 17zM313 840c-7 0 -15 -2 -22 -6c-25 -14 -25 -52 -25 -59c0 -27 8 -57 24 -85l4 -6h147c-1 26 -10 54 -24 79c-18 31 -43 56 -70 68c-8 4 -21 9 -34 9zM674 840c-13 0 -26 -5 -34 -9c-26 -12 -51 -37 -69 -68c-14 -24 -22 -50 -24 -74
l10 -5h137l3 6c16 28 25 59 25 86c0 8 -1 44 -26 58c-7 4 -14 6 -22 6zM449 112v493h-320v-493h320zM848 112v493h-205c12 -17 23 -36 33 -57c29 -65 38 -127 39 -129l-78 -12c0 1 -8 55 -34 110c-19 41 -41 70 -68 88h-7v-493h320z" />
    <glyph glyph-name="uniE033" unicode="&#xe033;" horiz-adv-x="1139"
d="M345 917h271l-60 -43h-86c57 -24 87 -92 87 -160c0 -58 -32 -109 -77 -143c-43 -35 -52 -50 -52 -79c0 -24 48 -66 72 -84c72 -51 95 -98 95 -177c0 -98 -95 -196 -267 -196c-151 0 -278 61 -278 160c0 100 116 196 266 196c18 0 32 1 48 1c-20 19 -38 45 -38 74
c0 19 6 36 15 52c-9 -1 -17 -1 -26 -1c-123 0 -206 90 -206 199c0 107 115 201 236 201zM870 917h44v-175h175v-44h-175v-177h-44v177h-177v44h177v175zM311 875c-70 1 -116 -68 -105 -161c12 -91 78 -168 149 -170c70 -1 116 71 105 163c-12 93 -78 167 -149 168zM345 366
c-104 2 -197 -64 -197 -142s76 -145 180 -145c146 0 197 62 197 141c0 10 -1 20 -3 29c-11 45 -52 66 -109 105c-20 8 -43 12 -68 12z" />
    <glyph glyph-name="uniE071" unicode="&#xe071;" horiz-adv-x="1591"
d="M1504 537c25 -60 37 -123 37 -188c0 -64 -12 -127 -37 -187c-25 -57 -59 -108 -104 -153c-44 -44 -95 -78 -152 -103c-60 -25 -123 -38 -188 -38s-128 13 -187 38c-57 25 -109 59 -153 103l-9 10h-661v35v4c0 135 32 261 92 364c55 95 131 166 222 210
c-32 47 -48 102 -48 160c0 78 30 151 85 206s128 85 206 85s151 -30 206 -85c52 -53 82 -122 85 -196c52 19 106 28 162 28c65 0 128 -12 188 -37c57 -25 108 -59 152 -103c45 -45 79 -96 104 -153zM827 770c0 7 1 15 1 22c0 122 -99 221 -221 221s-221 -99 -221 -221
c0 -59 23 -114 64 -156c42 -42 98 -65 157 -65c9 0 18 1 27 2c23 43 52 82 86 117c32 31 68 58 107 80zM1096 496c35 0 61 20 61 55c0 36 -26 56 -61 56c-31 0 -58 -20 -58 -56c0 -35 27 -55 58 -55zM121 89h535c-15 23 -28 48 -39 73c-25 60 -38 123 -38 187
c0 53 9 103 25 152c-72 1 -140 28 -193 76c-86 -37 -158 -102 -209 -190c-49 -85 -77 -187 -81 -298zM1104 146c-23 0 -24 16 -21 34l45 258h-95l-48 -272c-11 -62 13 -95 76 -95c17 0 36 3 52 8l15 71c-10 -2 -17 -4 -24 -4z" />
    <glyph glyph-name="uniE006" unicode="&#xe006;" horiz-adv-x="1072"
d="M554 909l451 -273c11 -7 17 -19 17 -30c0 -7 -2 -13 -5 -19c-7 -10 -18 -16 -30 -16c-7 0 -13 1 -18 5l-13 7v-510c0 -19 -16 -35 -35 -35h-273c-19 0 -35 16 -35 35v315h-155v-315c0 -19 -15 -35 -35 -35h-272c-19 0 -35 16 -35 35v510l-13 -7c-5 -4 -12 -5 -18 -5
c-12 0 -23 6 -30 16c-3 6 -5 12 -5 19c0 11 6 23 17 30l451 273c5 3 12 5 18 5s12 -2 18 -5zM886 626l-350 212l-350 -212v-517h202v314c0 19 16 35 35 35h225c20 0 35 -16 35 -35v-314h203v517z" />
    <glyph glyph-name="uniE088" unicode="&#xe088;" horiz-adv-x="1212"
d="M1118 692c29 -68 44 -141 44 -216s-15 -148 -44 -216c-28 -67 -68 -126 -119 -177s-111 -91 -177 -119c-68 -29 -141 -44 -216 -44s-148 15 -217 44c-66 28 -125 68 -176 119s-91 110 -119 177c-29 68 -44 141 -44 216s15 148 44 216c28 66 68 126 119 177
s110 91 176 119c69 29 142 44 217 44s148 -15 216 -44c66 -28 126 -68 177 -119s91 -111 119 -177zM647 645c40 0 70 23 70 63c0 42 -30 66 -70 66c-36 0 -67 -24 -67 -66c0 -40 31 -63 67 -63zM656 241c-26 0 -28 18 -24 39l52 298h-110l-55 -314c-13 -71 14 -110 87 -110
c20 0 42 3 61 10l17 81c-11 -2 -20 -4 -28 -4z" />
    <glyph glyph-name="uniE058" unicode="&#xe058;" horiz-adv-x="278"
d="M137 875c-47 0 -87 -31 -87 -85c0 -52 40 -83 87 -83c51 0 91 31 91 83c0 54 -40 85 -91 85zM208 77v544h-140v-544h140z" />
    <glyph glyph-name="uniE085" unicode="&#xe085;" horiz-adv-x="1125"
d="M562 988c139 0 157 0 212 -3c54 -2 91 -11 124 -24c34 -13 62 -30 91 -59c28 -28 46 -57 59 -91c12 -32 21 -69 24 -124c2 -55 3 -72 3 -211s-1 -157 -3 -211c-3 -55 -12 -92 -24 -125c-13 -33 -31 -62 -59 -91c-29 -28 -57 -46 -91 -59c-33 -12 -70 -21 -124 -23
c-55 -3 -73 -4 -212 -4s-156 1 -211 4c-54 2 -92 11 -124 23c-34 13 -63 31 -91 59c-28 29 -46 58 -59 91s-21 70 -24 125c-2 54 -3 72 -3 211s1 156 3 211c3 55 11 92 24 124c13 34 31 63 59 91c28 29 57 46 91 59c32 13 70 22 124 24c55 3 72 3 211 3zM562 896
c-136 0 -153 -1 -207 -3c-50 -2 -77 -11 -95 -18c-24 -9 -41 -20 -59 -38s-29 -35 -38 -59c-7 -18 -15 -45 -18 -95c-2 -54 -3 -70 -3 -207s1 -153 3 -207c3 -50 11 -77 18 -95c9 -24 20 -41 38 -59s35 -29 59 -39c18 -7 45 -15 95 -17c54 -3 71 -3 207 -3
c137 0 153 0 207 3c50 2 77 10 95 17c24 10 41 21 59 39s29 35 39 59c7 18 15 45 17 95c3 54 3 70 3 207s0 153 -3 207c-2 50 -10 77 -17 95c-10 24 -21 41 -39 59s-35 29 -59 38c-18 7 -45 16 -95 18c-54 2 -70 3 -207 3zM836 811c34 0 61 -28 61 -62s-27 -61 -61 -61
s-62 27 -62 61s28 62 62 62zM562 739c146 0 263 -118 263 -263s-117 -263 -263 -263c-145 0 -263 118 -263 263s118 263 263 263zM562 647c-94 0 -170 -77 -170 -171s76 -171 170 -171c95 0 171 77 171 171s-76 171 -171 171z" />
    <glyph glyph-name="uniE022" unicode="&#xe022;" horiz-adv-x="898"
d="M158 919c60 0 108 -48 108 -108s-48 -108 -108 -108s-108 48 -108 108s48 108 108 108zM71 638h173v-604h-173v604zM331 638h172v-26c31 14 68 21 105 21c44 0 88 -10 123 -29c68 -38 117 -124 117 -203v-367h-172v367c0 17 -17 45 -30 52c-9 5 -24 7 -39 7
c-12 0 -25 -1 -33 -5l-71 -35v-386h-172v604z" />
    <glyph glyph-name="uniE037" unicode="&#xe037;" horiz-adv-x="1288"
d="M50 713l613 -593l575 595l-119 115l-460 -476l-494 478z" />
    <glyph glyph-name="uniE053" unicode="&#xe053;" horiz-adv-x="1138"
d="M630 913c58 -8 113 -27 164 -57c51 -29 95 -68 131 -114c22 -28 40 -58 54 -90l30 172l79 -13l-60 -352l-322 154l34 72l174 -83c-31 78 -87 142 -160 185c-58 33 -122 51 -187 51c-33 0 -65 -5 -97 -13c-66 -18 -125 -52 -172 -101c-46 -47 -78 -105 -95 -168l-77 20
c20 77 59 147 115 204c57 59 129 101 208 122c39 10 78 16 117 16c21 0 42 -2 64 -5zM50 135l78 348l314 -171l-38 -70l-173 94c30 -67 79 -125 143 -165c60 -38 129 -57 198 -57c28 0 57 3 85 10c66 15 126 47 175 94c47 45 81 102 100 164l77 -22
c-23 -76 -65 -145 -122 -200c-59 -56 -132 -96 -212 -114c-34 -8 -68 -12 -102 -12c-27 0 -53 2 -79 7c-58 10 -112 31 -162 62c-50 32 -93 72 -128 119c-14 21 -27 42 -38 64l-38 -169z" />
    <glyph glyph-name="uniE040" unicode="&#xe040;" horiz-adv-x="1308"
d="M100 906h1108c28 0 50 -22 50 -50v-759c0 -27 -22 -50 -50 -50h-1108c-27 0 -50 23 -50 50v759c0 28 23 50 50 50zM1183 624v207h-1058v-207l524 -220zM125 543v-420h1058v420l-520 -214c-4 -2 -9 -3 -14 -3s-10 1 -15 3z" />
    <glyph glyph-name="uniE042" unicode="&#xe042;" horiz-adv-x="1441"
d="M903 147l17 -3l48 97h38l49 -97l17 3c26 6 53 15 79 26l16 7l-18 107l31 23l96 -51l11 13c19 21 36 44 50 68l8 15l-77 76l12 36l107 16l2 17c1 14 2 28 2 42s-1 28 -2 42l-2 17l-107 16l-12 36l77 76l-8 15c-14 24 -31 47 -50 68l-11 13l-96 -50l-31 22l18 107l-16 7
c-26 11 -53 20 -79 26l-17 3l-49 -97h-38l-48 97l-17 -3c-27 -6 -54 -15 -79 -26l-16 -7l18 -107l-31 -22l-96 50l-12 -13c-18 -20 -35 -43 -49 -68l-9 -15l78 -76l-12 -36l-107 -16l-2 -17c-2 -14 -2 -28 -2 -42s0 -28 2 -42l2 -17l107 -16l12 -36l-78 -76l9 -15
c14 -25 31 -47 49 -68l12 -13l96 51l31 -23l-18 -107l16 -7c25 -11 52 -20 79 -26zM858 208l17 99l-76 55l-90 -46c-8 10 -16 20 -23 32l72 70l-29 89l-100 15v20v20l100 15l29 89l-72 70c7 12 15 22 23 33l90 -47l76 55l-17 99c12 5 25 9 38 13l44 -91h94l45 91
c13 -4 25 -8 38 -13l-17 -99l76 -55l89 47c9 -11 16 -21 24 -33l-73 -70l29 -89l100 -15c1 -7 1 -13 1 -20s0 -13 -1 -20l-100 -15l-29 -89l73 -70c-8 -11 -15 -22 -24 -32l-89 46l-76 -55l17 -99c-13 -5 -25 -9 -38 -13l-45 91h-94l-44 -91c-13 4 -26 8 -38 13zM987 372
c94 0 170 76 170 170s-76 170 -170 170c-93 0 -169 -76 -169 -170s76 -170 169 -170zM987 667c69 0 125 -56 125 -125s-56 -125 -125 -125c-68 0 -124 56 -124 125s56 125 124 125zM260 16l17 -4l39 67l40 1l41 -67l16 5c23 7 45 16 65 28l15 9l-20 75l28 29l75 -18l9 15
c11 21 20 43 26 66l4 16l-67 39l-1 40l66 41l-4 16c-7 23 -16 45 -28 65l-9 15l-75 -20l-29 28l18 76l-15 8c-21 11 -43 20 -66 26l-17 4l-38 -67l-41 -1l-40 67l-17 -5c-22 -7 -44 -16 -65 -28l-15 -9l21 -75l-28 -29l-76 18l-8 -15c-12 -20 -20 -43 -26 -66l-5 -16l68 -39
v-40l-66 -41l5 -16c6 -23 16 -45 28 -65l9 -15l75 20l29 -28l-18 -76l15 -8c20 -11 43 -20 65 -26zM231 74l16 66l-65 64l-66 -18c-4 8 -8 16 -11 24l59 36l-2 91l-59 34c3 9 6 17 10 24l66 -16l64 66l-18 66c8 4 16 7 24 10l36 -58l91 1l34 60c8 -3 16 -6 24 -10l-16 -66
l66 -64l66 18c4 -8 7 -16 10 -24l-58 -36l1 -91l59 -34c-2 -8 -6 -16 -9 -24l-67 16l-63 -66l17 -66c-7 -4 -15 -7 -23 -10l-36 58l-92 -1l-34 -60c-8 3 -16 6 -24 10zM333 182c29 0 57 11 79 32c21 21 33 49 33 79s-11 58 -32 79c-21 22 -49 34 -79 34h-1
c-30 0 -58 -11 -79 -32s-33 -49 -33 -79c-1 -30 11 -58 32 -79c21 -22 49 -34 79 -34h1zM333 361c18 0 35 -7 48 -20c12 -13 19 -30 19 -48c-1 -36 -31 -66 -67 -66h-1c-18 0 -35 7 -47 20c-13 13 -20 30 -19 48c0 36 30 66 67 66z" />
    <glyph glyph-name="uniE001" unicode="&#xe001;" horiz-adv-x="1319"
d="M50 905h1219v-159h-1219v159zM50 556h1219v-159h-1219v159zM50 208h1219v-160h-1219v160z" />
    <glyph glyph-name="uniE055" unicode="&#xe055;" horiz-adv-x="943"
d="M50 536v-120h843v120h-843z" />
    <glyph glyph-name="uniE074" unicode="&#xe074;" horiz-adv-x="1096"
d="M630 783c21 -7 38 -18 52 -32c22 -22 34 -51 36 -88c1 -37 1 -73 1 -111v-91c0 -26 6 -49 23 -70c2 -2 4 -4 5 -6c3 -3 5 -7 7 -10l2 -3c2 -4 4 -7 4 -10c0 -5 -3 -9 -7 -13l-66 -56c-6 -4 -12 -7 -17 -7s-9 2 -14 7c0 1 -1 1 -1 2c-1 0 -1 0 -1 1l-3 2l-45 49
c-7 -6 -16 -14 -24 -20c-35 -31 -73 -44 -115 -44c-18 0 -37 3 -56 8c-23 5 -42 16 -56 30c-16 16 -27 37 -33 62c-4 16 -5 32 -5 46c0 40 13 76 44 108c24 26 55 38 87 48c39 10 79 14 119 18c22 2 22 1 22 24c0 10 -1 21 -3 31c-2 12 -6 22 -14 29c-6 7 -15 11 -26 13
c-7 2 -14 3 -21 3c-13 0 -27 -3 -41 -10c-18 -9 -28 -25 -32 -43c-4 -14 -9 -18 -23 -17l-80 8c-7 1 -11 3 -14 8c-3 3 -4 8 -3 15c12 55 43 93 93 114c35 15 72 22 108 22c32 0 65 -6 97 -17zM584 530c-25 0 -51 -2 -74 -10c-39 -14 -58 -41 -58 -80c0 -26 7 -50 32 -60
c9 -4 17 -6 25 -6c15 0 29 6 41 16c13 10 22 23 29 39c9 21 10 45 10 69c0 8 0 17 1 26c0 5 -1 6 -6 6zM983 373c15 0 31 -2 47 -8c14 -3 16 -7 16 -21c-1 -55 -19 -101 -56 -141c-4 -4 -7 -8 -12 -9c-3 -1 -8 -1 -10 0s-2 6 -2 9c7 17 15 34 20 52c5 15 9 32 11 49
c1 3 1 5 1 8c0 11 -6 17 -20 20c-9 1 -22 1 -35 2c-23 -2 -46 -3 -69 -6c-5 0 -9 3 -14 4c2 4 3 9 7 12c34 22 77 29 116 29zM64 351c18 -7 35 -18 52 -27c109 -53 224 -85 345 -96c32 -3 64 -5 96 -5c128 0 252 24 372 73c7 2 14 4 21 2c10 -1 14 -11 9 -19
c-3 -4 -7 -8 -12 -10c-72 -49 -152 -80 -237 -99c-54 -12 -110 -19 -165 -19c-175 2 -332 56 -469 165c-8 7 -16 12 -22 20c-3 4 -3 9 -4 14c5 0 10 3 14 1z" />
    <glyph glyph-name="uniE066" unicode="&#xe066;" horiz-adv-x="2499"
d="M2171 1147h106v-403h-95l-10 52c-11 -40 -47 -60 -93 -60c-70 0 -121 55 -121 153c0 101 49 163 133 163c39 0 70 -17 80 -46v141zM289 1128h107v-384h-107v149h-132v-149h-107v384h107v-143h132v143zM592 1052c86 0 124 -37 124 -103v-106c0 -14 4 -22 15 -22
c7 0 13 2 19 6v-75c-14 -10 -28 -14 -52 -14c-41 0 -63 18 -75 48c-17 -32 -43 -49 -86 -49c-56 0 -90 32 -90 84c0 64 46 97 137 97h30v20c0 20 -6 33 -25 33c-18 0 -27 -11 -28 -35l-101 15c6 62 54 101 132 101zM1514 1052c86 0 124 -37 124 -103v-106
c0 -14 4 -22 15 -22c6 0 13 2 19 6v-75c-15 -10 -28 -14 -52 -14c-41 0 -63 18 -75 48c-17 -32 -43 -49 -86 -49c-56 0 -91 32 -91 84c0 64 47 97 137 97h31v20c0 20 -6 33 -25 33s-27 -11 -28 -35l-101 15c6 62 54 101 132 101zM1003 1045l-7 -119c-12 5 -20 8 -37 8
c-24 0 -54 -9 -54 -63v-127h-105v301h90l10 -74c9 50 51 74 103 74zM1258 1045h103l-110 -301h-113l-106 301h111l35 -121c12 -44 19 -74 19 -74h2s6 30 20 74zM1925 1045l-7 -119c-12 5 -20 8 -37 8c-24 0 -54 -9 -54 -63v-127h-105v301h90l10 -74c9 50 51 74 103 74z
M2122 975c-31 0 -57 -22 -57 -82c0 -50 21 -76 56 -76c27 0 51 20 51 61v38c0 39 -19 59 -50 59zM614 845v20h-13c-38 0 -51 -12 -51 -32c0 -14 9 -25 28 -25c17 0 36 9 36 37zM1536 845v20h-14c-37 0 -50 -12 -50 -32c0 -14 9 -25 28 -25c17 0 36 9 36 37zM1110 710
c32 0 58 -21 58 -55s-26 -55 -58 -55c-31 0 -58 21 -58 55s27 55 58 55zM50 663h171c81 0 125 -37 125 -101c0 -45 -26 -76 -67 -86c54 -12 83 -48 83 -94c0 -62 -42 -103 -136 -103h-176v384zM883 587c72 0 116 -30 126 -86l-95 -14c-4 17 -14 26 -34 26
c-15 0 -26 -7 -26 -18c0 -12 9 -18 24 -21l41 -7c66 -11 94 -47 94 -98c0 -71 -62 -98 -136 -98c-68 0 -114 25 -131 78l84 33c6 -25 25 -38 48 -38c19 0 32 7 32 20s-11 19 -33 24l-40 8c-55 12 -84 40 -84 89c0 73 63 102 130 102zM1424 587c46 0 88 -27 88 -96v-212h-105
v171c0 31 -9 50 -36 50c-23 0 -42 -14 -42 -60v-161h-105v301h94l10 -58c16 45 51 65 96 65zM1707 587c89 0 135 -57 135 -141c0 -11 0 -24 -2 -38h-183c2 -37 20 -57 51 -57c22 0 37 10 44 37l88 -28c-17 -64 -71 -89 -131 -89c-89 0 -154 57 -154 155
c0 102 57 161 152 161zM2015 587c73 0 116 -30 127 -86l-96 -14c-3 17 -14 26 -34 26c-15 0 -25 -7 -25 -18c0 -12 8 -18 24 -21l40 -7c67 -11 95 -47 95 -98c0 -71 -62 -98 -137 -98c-68 0 -114 25 -131 78l84 33c6 -25 25 -38 48 -38c19 0 32 7 32 20s-11 19 -33 24l-40 8
c-55 12 -84 40 -84 89c0 73 63 102 130 102zM2318 587c73 0 116 -30 127 -86l-96 -14c-3 17 -14 26 -34 26c-15 0 -25 -7 -25 -18c0 -12 8 -18 24 -21l40 -7c67 -11 95 -47 95 -98c0 -71 -62 -98 -137 -98c-68 0 -114 25 -131 78l84 33c6 -25 25 -38 48 -38c19 0 32 7 32 20
s-11 19 -33 24l-40 8c-55 12 -83 40 -83 89c0 73 62 102 129 102zM593 580h106v-301h-95l-10 56c-8 -40 -39 -64 -90 -64c-55 0 -94 34 -94 105v204h106v-182c0 -30 8 -48 33 -48c27 0 44 24 44 73v157zM1058 580h105v-301h-105v301zM197 576h-41v-73h41c27 0 44 10 44 37
c0 26 -17 36 -44 36zM1704 511c-26 0 -42 -21 -45 -49h83c0 26 -9 49 -38 49zM211 434h-55v-67h55c27 0 42 11 42 34c0 22 -15 33 -42 33zM1104 245c32 0 58 -21 58 -55s-26 -56 -58 -56c-31 0 -58 22 -58 56s27 55 58 55zM50 198h164c86 0 146 -34 146 -121
c0 -61 -39 -91 -82 -98c35 -7 53 -23 62 -56l18 -66c5 -17 10 -30 24 -44h-117c-12 11 -17 25 -21 43l-12 48c-7 27 -18 33 -42 33h-34v-124h-106v385zM541 122c89 0 135 -58 135 -141c0 -11 0 -24 -2 -38h-184c2 -37 21 -57 52 -57c22 0 37 9 44 36l88 -27
c-17 -65 -71 -90 -131 -90c-89 0 -154 57 -154 156c0 102 57 161 152 161zM1357 122c89 0 135 -58 135 -141c0 -11 0 -24 -2 -38h-184c2 -37 21 -57 52 -57c22 0 37 9 44 36l88 -27c-17 -65 -71 -90 -131 -90c-89 0 -154 57 -154 156c0 102 57 161 152 161zM916 115h103
l-110 -302h-113l-105 302h110l35 -122l20 -73h1s6 30 20 73zM1052 115h105v-302h-105v302zM1879 115h103l-82 -302h-118l-18 88c-9 45 -17 97 -17 97h-1s-7 -52 -16 -97l-18 -88h-118l-81 302h106l24 -107c12 -53 19 -93 19 -93h1s6 41 17 95l22 105h94l22 -105
c11 -54 17 -95 17 -95h1s7 40 19 93zM197 108h-41v-85h41c38 0 54 15 54 42s-16 43 -54 43zM537 46c-25 0 -41 -21 -44 -49h83c0 26 -9 49 -39 49zM1353 46c-25 0 -41 -21 -44 -49h83c0 26 -9 49 -39 49z" />
    <glyph glyph-name="uniE065" unicode="&#xe065;" horiz-adv-x="1361"
d="M50 1042h183l28 -129h1050v-250c0 -83 -56 -157 -136 -179l-772 -210l29 -130c42 -10 75 -42 86 -84h345c14 50 59 87 113 87c66 0 119 -53 119 -118c0 -66 -53 -119 -119 -119c-54 0 -99 37 -113 87h-345c-14 -50 -59 -87 -113 -87c-66 0 -119 53 -119 119
c0 52 35 96 82 112l-186 838h-132v63zM1248 663v187h-962l114 -512l758 207c53 15 90 63 90 118zM405 84c-31 0 -55 -25 -55 -55c0 -31 24 -55 55 -55c30 0 55 24 55 55c0 30 -25 55 -55 55zM976 84c-30 0 -55 -25 -55 -55c0 -31 25 -55 55 -55c31 0 55 24 55 55
c0 30 -24 55 -55 55z" />
    <glyph glyph-name="uniE062" unicode="&#xe062;" horiz-adv-x="836"
d="M719 844l67 -67l-302 -301l302 -301l-67 -66l-301 301l-301 -301l-67 66l301 301l-301 301l67 67l301 -301z" />
    <glyph glyph-name="uniE064" unicode="&#xe064;" horiz-adv-x="1361"
d="M50 936h1261v-58h-177v-862h-907v862h-177v58zM1076 74v791h-791v-791h791zM444 695h473v-57h-473v57zM444 498h473v-58h-473v58zM444 301h473v-58h-473v58z" />
    <glyph glyph-name="uniE063" unicode="&#xe063;" horiz-adv-x="1365"
d="M582 1108c294 0 532 -238 532 -532c0 -136 -51 -259 -134 -353l335 -335l-45 -45l-335 336c-94 -84 -217 -135 -353 -135c-294 0 -532 238 -532 532s238 532 532 532zM582 1045c-259 0 -469 -210 -469 -469s210 -469 469 -469c128 0 247 50 336 141
c86 89 133 205 133 328c0 259 -210 469 -469 469z" />
    <glyph glyph-name="uniE067" unicode="&#xe067;" horiz-adv-x="1203"
d="M57 1107h1089s7 -81 7 -197c0 -192 -20 -477 -130 -640c-112 -165 -262 -309 -421 -425c-159 116 -309 260 -421 425c-111 164 -131 453 -131 644c0 114 7 193 7 193zM1087 1044h-971c-2 -33 -3 -77 -3 -129c0 -184 19 -459 120 -610c2 -2 4 -4 5 -6c34 22 76 37 122 54
c23 8 47 17 72 27c28 14 46 36 46 58c0 10 -5 21 -14 32c-43 37 -69 94 -69 154v130c0 114 93 207 207 207s207 -93 207 -207v-130c0 -60 -27 -117 -72 -157c-8 -9 -12 -19 -12 -29c0 -22 19 -44 50 -60c23 -9 47 -18 70 -26c46 -16 86 -32 120 -54c2 3 4 5 5 7
c101 150 121 420 121 604c0 54 -2 101 -4 135zM602 903c-82 0 -149 -67 -149 -149v-130c0 -43 19 -84 52 -113c21 -25 31 -49 31 -73c0 -45 -29 -85 -80 -111c-28 -11 -53 -20 -76 -28c-44 -16 -80 -29 -108 -47c87 -117 200 -229 330 -328c130 99 242 211 330 328
c-28 17 -64 30 -107 46c-23 8 -48 17 -74 28c-54 26 -83 67 -83 112c0 23 9 47 25 68l4 4c34 28 54 70 54 114v130c0 82 -67 149 -149 149z" />
    <glyph glyph-name="uniE068" unicode="&#xe068;" horiz-adv-x="1599"
d="M603 1079c79 0 154 -30 209 -86c56 -56 87 -130 87 -209c0 -39 -8 -77 -22 -112c68 44 150 70 237 70c240 0 435 -195 435 -435s-195 -434 -435 -434c-130 0 -247 57 -326 147h-737l-1 47v4c0 67 7 130 20 188c13 60 34 114 61 163c28 50 63 93 104 129
c35 31 74 56 118 76c-29 47 -45 101 -45 157c0 79 31 153 86 209c56 56 130 86 209 86zM603 985c-111 0 -201 -90 -201 -201s90 -201 201 -201c54 0 105 21 143 59s59 88 59 142c0 111 -91 201 -202 201zM410 561l4 -11c-87 -33 -155 -92 -201 -174
c-22 -41 -40 -87 -51 -138c-9 -38 -15 -80 -17 -123h579c-28 58 -44 123 -44 192c0 77 19 149 54 212c-40 -20 -84 -31 -131 -31c-72 0 -140 26 -193 73zM1313 417l-56 51l-214 -239l-93 103l-57 -51l151 -166z" />
    <glyph glyph-name="uniE041" unicode="&#xe041;" horiz-adv-x="1283"
d="M1102 511v-271c75 -19 131 -87 131 -168c0 -96 -78 -174 -174 -174s-174 78 -174 174c0 81 56 149 131 168v185h-332v-184c76 -19 131 -87 131 -168c0 -96 -78 -174 -174 -174s-174 78 -174 174c0 81 56 149 132 168v184h-332v-184c75 -19 131 -88 131 -169
c0 -96 -78 -174 -174 -174s-174 78 -174 174c0 81 56 150 131 169v270h418v200c-31 8 -58 24 -81 46c-33 33 -51 77 -51 123c0 47 18 90 51 123s77 51 123 51c96 0 174 -78 174 -174c0 -81 -55 -149 -131 -168v-201h418zM553 880c0 -48 40 -88 88 -88c49 0 89 40 89 88
c0 49 -40 88 -89 88c-48 0 -88 -39 -88 -88zM730 73c0 48 -40 88 -89 88c-48 0 -88 -40 -88 -88c0 -49 40 -89 88 -89c49 0 89 40 89 89zM312 72c0 49 -39 88 -88 88s-88 -39 -88 -88c0 -48 39 -88 88 -88s88 40 88 88zM1059 -16c48 0 88 39 88 88c0 48 -40 88 -88 88
c-49 0 -88 -40 -88 -88c0 -49 39 -88 88 -88z" />
    <glyph glyph-name="uniE029" unicode="&#xe029;" horiz-adv-x="943"
d="M893 536v-120h-361v-361h-120v361h-362v120h362v361h120v-361h361z" />
    <glyph glyph-name="uniE086" unicode="&#xe086;" horiz-adv-x="1150"
d="M181 963h788c72 0 131 -60 131 -132v-306c0 -289 -235 -525 -525 -525c-289 0 -525 236 -525 525v306c0 72 59 132 131 132zM969 875h-788c-25 0 -43 -19 -43 -44v-306c0 -242 195 -437 437 -437s438 195 438 437v306c0 25 -19 44 -44 44zM341 682c17 0 34 -7 47 -20
l190 -190l184 184c13 13 30 20 47 20s34 -7 46 -20c13 -12 20 -29 20 -46s-7 -34 -20 -47l-231 -229c-12 -13 -29 -20 -46 -20c-18 0 -34 7 -47 20l-236 236c-13 13 -19 30 -19 46c0 17 6 33 19 46s29 20 46 20z" />
    <glyph glyph-name="uniE005" unicode="&#xe005;" horiz-adv-x="941"
d="M436 1100c30 0 59 -9 81 -27c26 -21 42 -52 43 -87c0 -18 1 -54 1 -95c0 -46 -1 -98 -1 -139c10 3 22 4 33 4h150c63 0 115 -52 115 -115v-5c0 -23 -8 -45 -20 -63c32 -21 53 -57 53 -97v-5c0 -40 -21 -75 -52 -96c12 -18 19 -40 19 -63v-5c0 -47 -29 -88 -71 -105
c8 -15 12 -31 12 -47c0 -58 -51 -107 -115 -107h-344c-39 0 -77 11 -114 32c-33 19 -65 46 -91 79c-26 31 -47 68 -62 106c-15 39 -23 80 -23 117c0 63 8 115 25 158c17 46 42 76 62 97c50 54 134 95 173 113c1 22 2 50 4 80c3 53 6 112 6 158c0 34 13 64 37 84
c21 18 49 28 79 28zM436 1030h-1c-11 0 -45 -3 -45 -42c0 -47 -3 -108 -6 -161c-2 -40 -4 -78 -4 -100c0 -15 -9 -28 -22 -33c-1 0 -116 -46 -169 -104c-24 -26 -38 -48 -49 -75c-13 -35 -20 -78 -20 -133c0 -59 26 -126 69 -179c44 -54 99 -85 151 -85h127
c-4 12 -7 24 -7 37c0 22 8 43 20 61c-4 3 -8 7 -12 11c-22 22 -34 51 -34 81v5c0 30 12 58 32 79c-21 22 -33 50 -33 80v5c0 43 25 81 61 101c-10 17 -16 37 -16 59v5c0 18 4 35 12 50c0 31 1 125 1 200c0 40 -1 74 -1 91c-1 18 -13 47 -54 47zM743 686h-150
c-25 0 -45 -20 -45 -44v-5c0 -25 20 -45 45 -45l150 -1c24 0 45 21 45 45v5c0 25 -20 45 -45 45zM776 521h-228c-24 0 -45 -20 -45 -45v-4c0 -12 5 -23 14 -32c6 -7 14 -11 23 -13l9 1l194 -1c5 0 11 0 16 -1h17c25 0 45 20 45 45v5c0 25 -20 45 -45 45zM541 357
c-21 -4 -37 -22 -37 -44v-5c0 -12 5 -23 13 -32c9 -8 20 -13 32 -13h194c25 0 45 20 45 45v4c0 12 -5 23 -13 32c-6 6 -14 10 -22 12zM684 192h-109c-12 0 -24 -4 -33 -12c-7 -7 -12 -16 -12 -25s5 -18 12 -25c9 -7 21 -12 33 -12h109c12 0 24 4 33 12c8 7 12 16 12 25
s-4 18 -12 25c-9 8 -21 12 -33 12z" />
    <glyph glyph-name="uniE018" unicode="&#xe018;" horiz-adv-x="1190"
d="M917 845h143c44 0 80 -36 80 -80v-574c0 -44 -36 -79 -80 -79h-126v-180h-678l1 180h-127c-44 0 -80 35 -80 79v574c0 44 36 80 80 80h143v175h644v-175zM859 962h-528v-224h528v224zM1083 191v574c0 13 -10 23 -23 23h-143v-108h-644v108h-143c-13 0 -23 -10 -23 -23
v-574c0 -12 10 -22 23 -22h127v231h677v-231h126c13 0 23 10 23 22zM314 -10h563v353h-563v-353zM416 252h343v-58h-343v58zM760 64h-344v57h344v-57z" />
    <glyph glyph-name="uniE030" unicode="&#xe030;" horiz-adv-x="1129"
d="M565 991c-285 0 -515 -231 -515 -515s230 -515 515 -515c284 0 514 231 514 515s-230 515 -514 515zM570 771c26 0 49 -3 71 -10c21 -7 40 -17 55 -30c16 -14 29 -31 37 -50c9 -19 13 -42 13 -66c0 -16 -2 -31 -6 -44s-10 -25 -16 -35c-7 -11 -15 -20 -23 -29l-26 -25
l-25 -22c-8 -8 -15 -16 -21 -24c-6 -7 -11 -16 -15 -26c-4 -9 -6 -20 -6 -31v-38h-84v44c1 21 6 40 13 56c8 15 17 29 28 41s22 23 33 32c11 10 22 19 32 30c9 10 16 21 22 33c4 10 6 22 6 35c0 29 -9 51 -26 66c-15 14 -36 21 -62 21c-18 0 -33 -3 -46 -9s-23 -14 -32 -24
s-15 -21 -19 -35s-6 -29 -6 -46v-8h-84v8c-1 26 3 51 12 73c9 23 21 43 37 60s36 30 60 39c23 10 49 14 78 14zM569 283c40 0 72 -32 72 -72c0 -39 -32 -71 -72 -71c-39 0 -71 32 -71 71c0 40 32 72 71 72z" />
    <glyph glyph-name="uniE056" unicode="&#xe056;" horiz-adv-x="557"
d="M286 877c32 0 62 -5 89 -14c27 -8 51 -21 70 -38c20 -16 35 -37 46 -61s16 -52 16 -83c0 -20 -2 -38 -8 -54c-5 -16 -12 -31 -20 -44c-9 -13 -18 -25 -29 -36s-22 -22 -33 -32l-33 -30c-11 -10 -21 -21 -30 -32c-8 -12 -15 -24 -21 -38c-5 -13 -7 -28 -7 -45v-38h-90v46
c2 27 7 50 16 70c10 19 22 36 35 51c14 15 28 29 43 42c15 12 29 26 42 40s24 29 31 46c7 15 10 33 10 53c0 41 -14 71 -38 93c-22 20 -52 30 -89 30c-26 0 -47 -4 -66 -12c-18 -9 -33 -20 -45 -35c-13 -14 -21 -31 -27 -51c-6 -19 -8 -40 -8 -63h-90c0 33 5 64 16 93
c10 28 26 53 46 75c20 21 46 37 75 49s62 18 99 18zM285 224c41 0 74 -33 74 -74s-33 -75 -74 -75s-74 34 -74 75s33 74 74 74z" />
    <glyph glyph-name="uniE014" unicode="&#xe014;" horiz-adv-x="1144"
d="M638 913c58 -8 114 -27 165 -57c51 -29 95 -68 131 -114c16 -21 30 -43 42 -66l39 205l79 -15l-69 -361l-365 69l15 79l246 -47c-31 76 -86 139 -158 181c-58 33 -122 51 -188 51c-32 0 -64 -5 -96 -13c-66 -18 -125 -52 -172 -101c-46 -47 -79 -105 -95 -168l-77 20
c19 77 59 147 114 204c57 59 130 101 209 122c39 10 78 16 117 16c21 0 42 -2 63 -5zM50 102l80 358l363 -82l-18 -78l-243 55c28 -76 81 -140 151 -184c60 -38 128 -57 198 -57c28 0 56 3 84 10c66 15 127 47 175 94c47 45 82 102 101 164l76 -22
c-22 -76 -64 -145 -122 -200c-58 -56 -132 -96 -212 -114c-34 -8 -68 -12 -102 -12c-26 0 -52 2 -78 7c-58 10 -113 31 -163 62c-50 32 -92 72 -127 119c-15 21 -28 43 -39 66l-46 -204z" />
    <glyph glyph-name="uniE057" unicode="&#xe057;" horiz-adv-x="772"
d="M168 850l37 60l320 -200l-202 -323l-60 37l141 225c-61 4 -121 -13 -171 -49c-58 -42 -97 -103 -109 -174c-3 -15 -4 -31 -4 -46c0 -55 17 -109 50 -155c41 -58 103 -97 174 -109c15 -2 30 -4 45 -4c55 0 109 17 155 50c58 42 97 103 109 174l69 -12
c-7 -45 -24 -87 -48 -125c-24 -37 -54 -69 -89 -94c-36 -25 -76 -43 -119 -54c-25 -6 -51 -9 -77 -9c-19 0 -38 2 -57 5c-45 8 -87 24 -125 48c-37 24 -69 54 -94 90c-26 36 -44 76 -54 118c-6 26 -9 52 -9 78c0 18 2 37 5 56c7 46 24 88 48 126c24 37 54 68 90 94
c35 25 75 43 118 53c22 6 44 9 67 9z" />
    <glyph glyph-name="uniE060" unicode="&#xe060;" horiz-adv-x="1564"
d="M1457 761c38 -90 57 -186 57 -285s-19 -195 -57 -285c-37 -87 -90 -165 -157 -233c-67 -67 -146 -120 -233 -156c-90 -39 -186 -58 -285 -58s-195 19 -285 58c-87 36 -165 89 -233 156c-67 68 -120 146 -156 233c-39 90 -58 186 -58 285s19 195 58 285
c36 87 89 166 156 233c68 67 146 120 233 157c90 38 186 57 285 57s195 -19 285 -57c87 -37 166 -90 233 -157s120 -146 157 -233zM1346 238c32 75 48 155 48 238s-16 163 -48 238c-31 73 -75 139 -131 195s-122 100 -195 131c-75 32 -155 48 -238 48s-163 -16 -238 -48
c-73 -31 -138 -75 -195 -131c-56 -56 -100 -122 -131 -195c-32 -75 -48 -155 -48 -238s16 -163 48 -238c31 -73 75 -138 131 -195c57 -56 122 -100 195 -131c75 -32 155 -48 238 -48s163 16 238 48c73 31 139 75 195 131c56 57 100 122 131 195zM948 735l87 -84l-168 -173
l174 -168l-84 -86l-173 167l-168 -173l-86 83l167 174l-173 167l83 87l174 -168z" />
    <glyph glyph-name="uniE087" unicode="&#xe087;" horiz-adv-x="1135"
d="M607 917c7 0 15 -2 21 -6l442 -318c9 -7 15 -17 15 -29c0 -11 -6 -22 -15 -29l-442 -317c-6 -5 -14 -7 -21 -7c-5 0 -11 1 -16 4c-12 6 -19 18 -19 32v159c-71 -6 -175 -21 -264 -64c-56 -26 -100 -60 -130 -101c-35 -46 -52 -103 -52 -169c0 -20 -14 -36 -33 -37h-3
c-17 0 -32 12 -35 30c0 2 -5 33 -5 81c0 22 1 48 4 76c5 52 16 102 32 149c20 58 49 111 84 156c90 113 225 181 402 201v154c0 13 7 25 19 31c5 3 11 4 16 4zM988 564l-345 248v-117c0 -18 -15 -34 -33 -35c-172 -14 -301 -73 -384 -177c-30 -38 -55 -83 -72 -134
c-5 -13 -9 -26 -13 -40c36 39 81 72 136 98c52 24 112 43 180 56c59 11 114 15 149 16h1c9 0 18 -4 25 -10c7 -7 11 -16 11 -25v-128z" />
    <glyph glyph-name="uniE075" unicode="&#xe075;" horiz-adv-x="837"
d="M163 992h512c62 0 112 -51 112 -113v-919l-368 272l-369 -271v918c0 62 51 113 113 113z" />
    <glyph glyph-name="uniE010" unicode="&#xe010;" horiz-adv-x="837"
d="M163 992h512c62 0 112 -51 112 -113v-919l-368 272l-369 -271v918c0 62 51 113 113 113zM675 934h-512c-30 0 -55 -25 -55 -55v-803l311 228l310 -229v804c0 30 -24 55 -54 55z" />
    <glyph glyph-name="uniE016" unicode="&#xe016;" horiz-adv-x="960"
d="M93 1077h774c24 0 43 -19 43 -43v-1116c0 -24 -19 -43 -43 -43h-774c-24 0 -43 19 -43 43v1116c0 24 19 43 43 43zM492 -55h348v1062h-720v-1062h348l-258 258l49 50l186 -186v434h70v-434l186 186l49 -50z" />
    <glyph glyph-name="uniE007" unicode="&#xe007;" horiz-adv-x="1179"
d="M497 1049c60 0 119 -12 174 -35c53 -23 101 -55 142 -96s73 -89 96 -142c23 -55 35 -114 35 -174s-12 -119 -35 -174c-20 -47 -48 -91 -84 -129l304 -338l-65 -58l-304 338c-27 -20 -57 -37 -89 -50c-55 -23 -114 -35 -174 -35s-119 12 -174 35c-53 22 -101 55 -142 95
c-41 41 -73 89 -96 142c-23 55 -35 114 -35 174s12 119 35 174c23 53 55 101 96 142s89 73 142 96c55 23 114 35 174 35zM497 962c-96 0 -186 -38 -254 -106c-69 -67 -106 -158 -106 -254c0 -198 161 -359 360 -359c96 0 187 37 255 105s105 158 105 254s-37 187 -105 254
c-68 68 -159 106 -255 106z" />
    <glyph glyph-name="uniE009" unicode="&#xe009;" horiz-adv-x="954"
d="M444 903h65v-67c26 -1 51 -7 76 -14l26 61l59 -25l-26 -61c23 -13 45 -27 64 -43l48 48l46 -47l-48 -48c16 -19 31 -40 44 -63l61 26l24 -60l-61 -26c8 -25 12 -49 15 -75h67v-66h-67c-2 -26 -7 -50 -15 -75l61 -25l-24 -61l-61 27c-12 -24 -26 -45 -44 -64l48 -48
l-46 -46l-47 47c-20 -16 -42 -30 -65 -43l26 -61l-59 -25l-26 61c-25 -7 -50 -11 -76 -14v-67h-65v67c-25 3 -49 7 -74 14l-28 -62l-59 26l28 61c-24 11 -47 27 -67 45l-47 -48l-46 45l48 48c-18 20 -31 42 -44 64l-61 -27l-24 60l61 26c-8 25 -12 49 -15 75h-66v66h66
c3 26 7 50 15 75l-61 26l24 60l61 -26c13 23 28 44 45 65l-48 46l45 47l50 -47c19 16 40 31 64 42l-27 61l58 26l29 -62c24 7 48 13 73 14v67zM477 773c-164 0 -297 -132 -297 -296c0 -80 30 -155 87 -210c57 -57 131 -87 210 -87c164 0 296 133 296 297s-132 296 -296 296z
M477 570c51 0 93 -42 93 -93c0 -52 -42 -94 -93 -94c-52 0 -94 42 -94 94c0 51 42 93 94 93zM477 526c-27 0 -50 -22 -50 -49c0 -28 23 -51 50 -51c28 0 50 23 50 51c0 27 -22 49 -50 49z" />
    <glyph glyph-name="uniE015" unicode="&#xe015;" horiz-adv-x="1302"
d="M766 727c-28 -57 -46 -125 -52 -202l-70 6c7 86 27 163 60 227c28 56 65 105 112 144c68 58 144 88 204 108l-243 88l25 66l358 -131l-131 -359l-66 24l91 249c-58 -18 -129 -44 -193 -98c-39 -33 -71 -75 -95 -122zM1182 116v550h70v-577c0 -24 -19 -43 -43 -43h-1116
c-24 0 -43 19 -43 43v744c0 24 19 43 43 43h481v-70h-454v-690h1062z" />
    <glyph glyph-name="u1F6E1" unicode="&#xe023;" horiz-adv-x="802"
d="M752 879v-228c8 -440 -351 -605 -351 -605s-360 165 -351 605v228c0 14 12 27 27 27h648c14 0 27 -13 27 -27zM401 120c0 0 280 197 280 479c0 14 -12 26 -26 26h-508c-14 0 -27 -12 -27 -26c0 -282 281 -479 281 -479z" />
    <glyph glyph-name="uniE051" unicode="&#xe051;" horiz-adv-x="1159"
d="M50 1016h1059v-426c-1 -610 -503 -872 -507 -874l-23 -12l-14 8l-8 4c-3 2 -506 263 -507 874v426zM1077 638v346h-995v-346h995zM194 894l13 -3c-1 -1 -1 -2 -1 -3v-155c0 -4 3 -7 7 -7h76c0 -3 1 -5 3 -7h-98c-3 0 -5 2 -5 4v23c-6 1 -11 5 -11 10s5 9 11 10v74
c-6 1 -11 5 -11 10s5 9 11 10v29c0 3 2 5 5 5zM403 892l9 2c2 0 4 -2 4 -5v-29c7 -1 12 -5 12 -10s-5 -9 -12 -10v-74c7 -1 12 -5 12 -10s-5 -9 -12 -10v-23c0 -2 -2 -4 -4 -4h-97l3 7h79c4 0 8 3 8 7v155c0 1 -1 3 -2 4zM470 894l13 -3c-1 -1 -1 -2 -1 -3v-155
c0 -4 3 -7 8 -7h75c0 -3 1 -5 3 -7h-98c-3 0 -4 2 -4 4v23c-7 1 -12 5 -12 10s5 9 12 10v74c-7 1 -12 5 -12 10s5 9 12 10v29c0 3 1 5 4 5zM680 892l8 2c2 0 4 -2 4 -5v-29c7 -1 12 -5 12 -10s-5 -9 -12 -10v-74c7 -1 12 -5 12 -10s-5 -9 -12 -10v-23c0 -2 -2 -4 -4 -4h-97
c2 2 3 4 3 7h79c4 0 8 3 8 7v155c0 1 0 3 -1 4zM746 894l13 -3c-1 -1 -1 -2 -1 -3v-155c0 -4 4 -7 8 -7h75c0 -3 2 -5 3 -7h-98c-2 0 -4 2 -4 4v23c-7 1 -12 5 -12 10s5 9 12 10v74c-7 1 -12 5 -12 10s5 9 12 10v29c0 3 2 5 4 5zM956 892l8 2c3 0 4 -2 4 -5v-29
c7 -1 12 -5 12 -10s-5 -9 -12 -10v-74c7 -1 12 -5 12 -10s-5 -9 -12 -10v-23c0 -2 -1 -4 -4 -4h-97c2 2 3 4 3 7h80c4 0 7 3 7 7v155c0 2 0 3 -1 4zM223 891c0 -1 -1 -2 -1 -2v-142s0 -1 1 -1l-13 -11v153c0 1 2 2 4 2s5 0 9 1zM252 891c11 0 24 -1 34 -5s17 -11 17 -25
v-116h-74c-1 0 -2 1 -2 2v141c0 1 2 1 3 2l4 1h18zM360 891h17c1 0 3 -1 4 -1c1 -1 2 -1 2 -2h1v-141c0 -1 -1 -2 -2 -2h-74v116c0 14 7 21 17 25s23 5 35 5zM388 891c3 -1 7 -1 9 -1s3 -1 3 -2v-154l-12 11v2v142v2zM499 891c0 -1 0 -2 -1 -2v-142s1 -1 1 -2l-13 -10v153
c0 1 2 2 4 2s5 0 9 1zM528 891c11 0 24 -1 34 -5s17 -11 17 -25v-116h-74c-1 0 -2 1 -2 2v141l3 2c1 0 3 1 4 1h18zM636 891h17c1 0 3 -1 5 -1c0 -1 1 -1 2 -2v-141c0 -1 -1 -2 -2 -2h-74v116c0 14 7 21 17 25s24 5 35 5zM664 891c4 -1 7 -1 9 -1s4 -1 4 -2v-154l-13 11v2
v142v2zM775 891v-2v-141v-3l-12 -10v153c0 1 1 3 3 3h9zM926 891h2h2s2 0 4 -1c1 0 1 -1 2 -1v-1v-140c0 -2 -1 -2 -2 -2h-153c-1 0 -2 0 -2 2v141l7 2h2h1c14 0 31 -1 44 -6s22 -13 22 -28h5c0 15 9 23 22 28s30 6 44 6zM940 891h9c2 0 4 -2 4 -3v-154l-13 10c0 1 1 2 1 4
v141c0 1 -1 1 -1 2zM923 832v22h-2c0 -2 -1 -3 -2 -3c-3 0 -6 3 -12 3c-14 0 -16 -14 -16 -20c0 -5 0 -14 12 -22l5 -3c5 -3 9 -6 9 -13c0 -1 -1 -11 -10 -11s-13 11 -15 22h-2v-26h2c0 2 1 4 2 4c3 0 6 -4 13 -4c14 0 18 13 18 22c0 11 -5 17 -8 19l-11 7c-6 4 -7 7 -7 12
c0 7 4 10 8 10c8 0 13 -12 14 -19h2zM874 798l-17 54h-2l-16 -56c-3 -7 -4 -11 -8 -12v-2h15v2c-2 0 -6 1 -6 5l3 13h17c1 -3 4 -11 4 -14s-2 -3 -6 -4v-2h24v2h-1c-3 0 -4 4 -7 14zM539 851h-24v-3c4 0 7 -1 7 -9v-46c0 -8 -2 -8 -7 -9v-3h25v3c-5 1 -6 1 -6 9v21h2l15 -33
h15v3c-1 0 -2 0 -3 2l-15 29c4 2 12 5 12 18c0 17 -16 18 -21 18zM634 848v3h-26v-3c3 0 6 0 6 -7v-50c0 -6 -2 -6 -6 -7v-3h26v3c-4 0 -7 1 -7 7v50c0 7 3 7 7 7zM830 830l-1 21h-44v-21h2c1 16 9 17 14 17v-54c0 -8 -2 -8 -7 -9v-3h26v3c-5 1 -7 1 -7 9v54
c5 0 13 -1 14 -17h3zM288 848v2h-16v-2c4 -1 6 -1 6 -5l-1 -7l-10 -34l-9 32c-1 3 -3 7 -3 9c0 4 2 4 7 5v2h-25v-2c3 -1 4 -1 6 -8l19 -61h2l17 60c2 6 3 8 7 9zM364 828v21h-43v-3c4 0 7 0 7 -7v-50c0 -6 -2 -6 -7 -7v-2h44l3 21h-2c-5 -16 -12 -18 -20 -18
c-4 0 -6 1 -6 5v25c7 0 11 -3 12 -16h2v35h-2c-1 -13 -5 -15 -12 -15v23c0 5 1 5 6 5c10 0 15 -2 17 -17h1zM538 847c6 0 9 -4 9 -15c0 -13 -4 -15 -13 -15v26c0 3 0 4 4 4zM845 806l7 25l7 -25h-14zM212 730l13 12c1 -1 3 -1 4 -1h66c-3 -3 -6 -6 -6 -11h-76h-1zM489 730
l13 12c1 -1 2 -1 3 -1h66c-3 -3 -6 -6 -6 -11h-75h-1zM765 731l13 11c1 -1 2 -1 3 -1h67c-4 -2 -6 -6 -7 -10h-75h-1zM384 741l13 -11h-79c-1 5 -3 8 -7 11h71h2zM661 741l13 -11h-1h-79c0 5 -3 8 -6 11h70h3zM936 741l13 -10h-79c0 4 -3 8 -7 10h71h2zM303 738
c6 0 10 -4 10 -10c0 -4 -2 -7 -5 -9h-9c-4 2 -6 5 -6 9c0 6 5 10 10 10zM579 738c6 0 11 -4 11 -10c0 -4 -3 -7 -6 -9h-9c-3 2 -6 5 -6 9c0 6 5 10 10 10zM856 738c5 0 10 -4 10 -10c0 -4 -3 -7 -6 -9h-9c-3 2 -5 5 -5 9c0 6 4 10 10 10zM1077 590v16h-318
c6 -10 11 -21 13 -32c0 -4 1 -8 1 -12c0 -28 -19 -55 -71 -58c-1 -48 -12 -68 -74 -69c1 -4 1 -8 1 -12c0 -42 -25 -56 -51 -56c-27 0 -51 14 -51 56v12c-61 1 -73 21 -74 69c-52 3 -70 30 -70 58c0 4 0 8 1 12c2 11 6 22 12 32h-314v-16c1 -591 489 -845 490 -846l8 -4l7 4
c2 1 490 255 490 846zM115 574h10c23 -3 57 -22 52 -70c31 2 71 -4 71 -56c0 -4 -1 -8 -1 -13c44 2 71 -13 71 -57v-13c41 3 75 -13 70 -67c41 0 71 -20 71 -53c0 -38 -33 -53 -57 -53c-5 0 -10 1 -13 2c1 -4 1 -9 1 -14c0 -30 -19 -56 -59 -55h-10c0 -4 1 -8 1 -12
c0 -24 -10 -47 -44 -54c-88 126 -161 296 -164 515h1zM1038 574h7c-3 -218 -76 -388 -164 -514c-31 8 -39 31 -39 54v11h-11c-39 0 -58 27 -58 56c0 5 1 9 1 13c-3 -1 -8 -2 -14 -2c-24 0 -56 15 -56 53c0 33 30 53 72 53c-6 54 29 70 69 67v13c0 44 27 59 71 57v13
c0 47 32 57 61 57c3 0 6 -1 9 -1c-5 48 29 67 52 70zM380 513c9 0 12 -7 15 -23c2 -12 11 -30 22 -36c8 -4 31 -5 27 -19c-3 -5 -7 -15 -11 -15c-6 0 -20 22 -25 23s-4 -5 -2 -7l14 -19c3 -3 4 -7 4 -11c0 -5 -1 -9 -6 -11c-3 -1 -5 -1 -7 -1c-7 0 -12 4 -12 7v1
c0 8 -5 29 -8 29c-4 0 -4 -6 -3 -12v-3c0 -11 7 -21 6 -27s-3 -13 -14 -13s-13 7 -14 13v2c0 6 8 16 7 28v4c0 5 -1 8 -3 8c-4 0 -9 -21 -9 -29c0 -4 -5 -8 -12 -8c-10 0 -13 6 -13 12c0 4 2 8 4 11l14 19c2 1 3 7 -1 7c-3 0 -15 -15 -22 -21c-2 -1 -3 -2 -4 -2
c-4 0 -8 10 -10 15c-5 14 18 15 26 19c11 6 20 24 23 36c2 16 6 22 14 23zM776 513c8 0 11 -7 14 -23c2 -12 11 -30 23 -36c7 -4 31 -5 26 -19c-3 -5 -6 -15 -11 -15s-20 22 -25 23c-4 1 -3 -5 -2 -7c3 -3 10 -14 15 -19c2 -3 4 -7 4 -11c0 -5 -2 -9 -7 -11
c-2 -1 -5 -1 -7 -1c-6 0 -12 4 -12 7v1c0 8 -4 29 -8 29c-3 0 -3 -6 -3 -12v-3c0 -11 7 -21 6 -27s-2 -13 -13 -13c-12 0 -13 7 -14 13v2c0 6 7 16 6 28c1 6 0 12 -3 12c-4 0 -9 -22 -8 -30c0 -4 -6 -7 -12 -7c-10 0 -14 6 -14 12c0 4 2 8 5 11c4 5 11 16 14 19
c1 1 2 7 -1 7c-4 0 -16 -15 -23 -21c-1 -1 -2 -2 -3 -2c-5 0 -8 10 -11 15c-5 14 19 15 26 19c12 6 21 24 23 36c3 16 6 22 15 23zM351 494h1c3 0 4 -2 4 -4c0 -3 -2 -6 -2 -10c-1 -3 -1 -5 -3 -5c-1 0 -3 2 -7 7c-2 3 -3 6 -3 7c0 4 4 5 10 5zM746 494h1c3 0 4 -2 4 -4
c0 -3 -1 -6 -2 -10c0 -3 -1 -5 -2 -5c-2 0 -4 2 -8 7c-2 3 -3 6 -3 7c0 4 5 5 10 5zM408 493c9 0 16 -1 8 -11c-7 -10 -9 -9 -10 -3c-1 7 -4 14 2 14zM804 493c8 0 15 -1 8 -11c-8 -10 -10 -9 -10 -3c-1 7 -5 14 2 14zM582 318h1c8 0 11 -7 14 -23c2 -12 11 -30 22 -36
c8 -4 31 -5 27 -19c-4 -6 -8 -19 -14 -13c-7 6 -18 21 -22 22h-1c-3 0 -3 -6 -1 -8l14 -19c3 -3 5 -7 5 -11s-2 -8 -7 -11c-3 -1 -5 -1 -7 -1c-7 0 -12 4 -12 8v1c0 8 -5 28 -8 28c-4 0 -4 -6 -3 -12v-2c0 -12 7 -21 6 -27c-1 -7 -3 -13 -13 -13c-12 0 -14 6 -14 13
c-1 0 -1 0 -1 1c0 6 8 16 7 28v4c0 5 -1 8 -3 8c-4 0 -9 -22 -9 -29v-1c0 -5 -9 -10 -19 -6c-4 3 -6 7 -6 11s1 8 4 11l14 19c2 2 3 8 -1 8s-16 -16 -22 -22c-1 -1 -2 -1 -3 -1c-5 0 -9 9 -11 14c-5 14 18 15 26 19c12 6 21 24 23 36c2 16 6 23 14 23zM553 299h1
c3 0 4 -2 4 -4c0 -3 -2 -6 -2 -10c-1 -3 -1 -5 -3 -5c-1 0 -3 2 -7 8c-2 3 -3 5 -3 6c0 4 4 5 10 5zM610 299c9 0 16 -2 8 -12c-7 -10 -9 -9 -10 -2c-1 6 -4 14 2 14zM389 123c8 0 11 -7 14 -23c2 -12 11 -30 23 -36c7 -4 31 -5 26 -18c-3 -7 -7 -19 -14 -14
c-6 6 -17 21 -22 22c-4 0 -3 -6 -2 -8c3 -3 10 -14 15 -19c2 -3 4 -7 4 -11s-2 -8 -7 -10c-2 -2 -4 -2 -7 -2c-6 0 -12 4 -11 8v1c0 8 -5 28 -9 28c-3 0 -3 -6 -3 -12v-2c0 -12 7 -21 6 -27c-1 -7 -2 -13 -13 -13c-12 0 -13 6 -14 13v1c0 6 7 16 6 28c1 6 0 12 -3 12
c-4 0 -9 -22 -8 -29c0 -4 -6 -8 -12 -8c-10 0 -14 6 -14 12c0 4 2 8 5 11c4 5 11 16 14 19c2 2 2 8 -1 8c-4 0 -16 -16 -23 -22c-1 -1 -2 -1 -3 -1c-5 0 -8 9 -11 15c-5 13 19 14 26 18c12 6 21 24 23 36c3 16 6 23 15 23zM776 123c8 0 11 -7 14 -23c2 -12 11 -30 23 -36
c7 -4 31 -5 26 -18c-3 -7 -8 -19 -14 -14c-6 6 -17 21 -22 22c-4 0 -3 -6 -2 -8c3 -3 10 -14 15 -19c2 -3 4 -7 4 -11s-2 -8 -7 -10c-2 -2 -5 -2 -7 -2c-6 0 -12 4 -12 8v1c0 8 -4 28 -8 28c-3 0 -3 -6 -3 -12v-2c0 -12 7 -21 6 -27c-1 -7 -2 -13 -13 -13
c-12 0 -13 6 -14 13v1c0 7 7 16 6 28c1 6 0 12 -3 12c-4 0 -9 -22 -8 -29c0 -4 -6 -8 -12 -8c-10 0 -14 6 -14 12c0 4 2 8 5 11c4 5 11 16 14 19c1 2 2 8 -1 8c-4 0 -16 -16 -23 -22c-1 -1 -2 -1 -3 -1c-5 0 -8 9 -11 15c-5 13 19 14 26 18c12 6 21 24 23 36
c3 16 6 23 15 23zM581 121c33 0 58 -27 54 -68c6 2 13 3 20 3c29 0 57 -17 55 -58c0 -5 -1 -10 -2 -15c9 3 17 4 25 4c29 0 49 -19 51 -46c-93 -96 -180 -150 -205 -164c-25 14 -110 67 -201 161c0 28 21 49 51 49c8 0 16 -1 25 -4c-1 6 -2 12 -2 18c0 40 29 55 58 55l17 -3
c-4 41 21 68 54 68zM359 105h1c3 0 4 -2 4 -4c0 -3 -1 -7 -2 -10c0 -4 -1 -5 -2 -5s-4 2 -8 7c-2 3 -3 5 -3 7c0 3 5 4 10 5zM746 105h1c3 0 4 -2 4 -4c0 -3 -1 -7 -2 -10c0 -4 -1 -5 -2 -5c-2 0 -4 2 -8 7c-2 3 -3 5 -3 7c0 3 5 4 10 5zM417 104c8 0 15 -2 8 -12
c-8 -10 -9 -9 -10 -2c-1 6 -4 14 2 14zM804 104c8 0 15 -2 8 -12c-8 -10 -10 -9 -10 -2c-1 6 -5 14 2 14z" />
    <glyph glyph-name="uniE082" unicode="&#xe082;" horiz-adv-x="810"
d="M405 831c48 0 94 -9 138 -28c42 -18 80 -43 113 -76c32 -33 58 -71 76 -113c18 -44 28 -90 28 -138s-10 -94 -28 -138c-18 -42 -44 -80 -76 -113c-33 -33 -71 -58 -113 -76c-44 -19 -90 -28 -138 -28s-94 9 -138 28c-43 18 -80 43 -113 76s-58 71 -76 113
c-19 44 -28 90 -28 138s9 94 28 138c18 42 43 80 76 113s70 58 113 76c44 19 90 28 138 28zM405 677c-111 0 -201 -90 -201 -201s90 -201 201 -201s201 90 201 201s-90 201 -201 201z" />
    <glyph glyph-name="uniE044" unicode="&#xe044;" horiz-adv-x="941"
d="M257 752h344c39 0 77 -11 114 -32c33 -19 65 -46 91 -79c26 -31 47 -68 62 -106c15 -39 23 -79 23 -117c0 -63 -8 -115 -25 -158c-17 -45 -43 -76 -62 -97c-50 -53 -134 -95 -173 -113c-1 -22 -2 -50 -4 -80c-3 -53 -6 -112 -6 -158c0 -34 -13 -64 -37 -84
c-21 -18 -49 -28 -79 -28s-59 10 -81 27c-26 21 -42 52 -43 88c0 17 -1 53 -1 94c0 46 1 98 1 139c-11 -3 -22 -4 -33 -4h-150c-63 0 -115 52 -115 115v5c0 23 7 45 20 64c-32 20 -53 56 -53 96v5c0 40 21 75 52 96c-12 18 -19 40 -19 63v5c0 47 29 88 71 105
c-8 15 -12 31 -12 47c0 58 51 107 115 107zM366 682h-109c-12 0 -24 -4 -33 -12c-8 -7 -12 -16 -12 -25s4 -18 12 -25c9 -8 21 -12 33 -12h109c12 0 24 4 33 12c7 7 12 16 12 25s-5 18 -12 25c-9 8 -21 12 -33 12zM601 682h-127c4 -12 7 -24 7 -37c0 -22 -8 -43 -20 -61
c4 -3 8 -7 12 -11c22 -22 34 -50 34 -81v-5c0 -30 -12 -58 -32 -79c21 -21 33 -50 33 -80v-4c0 -44 -25 -82 -61 -102c10 -17 16 -37 16 -59v-5c0 -17 -4 -34 -12 -50c0 -31 -1 -125 -1 -200c0 -40 1 -74 1 -91c1 -18 13 -47 53 -47h2c10 0 45 4 45 42c0 47 3 108 6 161
c2 40 4 78 4 101c0 14 9 27 22 32c1 1 116 46 169 104c24 26 38 48 49 75c13 35 20 79 20 133c0 59 -26 126 -69 179c-44 54 -99 85 -151 85zM392 537h-194c-25 0 -45 -20 -45 -44v-5c0 -12 5 -23 13 -32c6 -6 14 -10 22 -12l212 -1c21 4 37 22 37 44v5c0 12 -5 23 -13 32
c-9 8 -20 13 -32 13zM182 374h-17c-25 0 -45 -20 -45 -45v-5c0 -25 20 -45 45 -45h228c24 0 45 20 45 45v4c0 12 -5 24 -14 32c-6 7 -14 11 -23 13l-9 -1l-194 1c-5 0 -11 0 -16 1zM348 208l-150 1c-24 0 -45 -21 -45 -45v-5c0 -25 20 -45 45 -45h150c25 0 45 20 45 45v4
c0 25 -20 45 -45 45z" />
    <glyph glyph-name="uniE091" unicode="&#xe091;" horiz-adv-x="731"
d="M529 905v1h-144v-563c0 -26 -3 -50 -8 -70c-47 -103 -182 -88 -215 -14c-36 81 10 193 145 173v157c-328 52 -436 -433 -110 -530c57 -13 91 -12 128 -5c134 25 206 151 204 280v284c72 -65 187 -73 202 -72v146c-198 12 -202 200 -202 213z" />
    <glyph glyph-name="uniE079" unicode="&#xe079;" horiz-adv-x="884"
d="M246 815h392l196 -339l-196 -339h-392l-196 339zM745 476l-151 262h-304l-151 -262l151 -263h304zM441 661c50 0 97 -19 132 -54s54 -81 54 -130c1 -103 -82 -186 -184 -186c-50 0 -97 19 -132 54s-54 81 -54 130c0 50 19 96 54 131c34 36 81 55 130 55zM442 589
c-31 0 -59 -12 -80 -34c-21 -21 -33 -49 -33 -79c1 -62 51 -113 113 -113c62 1 113 51 113 113c-1 62 -51 113 -113 113z" />
    <glyph glyph-name="uniE020" unicode="&#xe020;" horiz-adv-x="1048"
d="M706 861c56 0 107 -24 142 -61c45 8 86 24 124 47c-15 -46 -45 -84 -86 -108c40 5 77 15 112 31c-26 -39 -59 -73 -97 -101c0 -8 1 -17 1 -25c0 -257 -196 -553 -554 -553c-110 0 -212 32 -298 87c15 -2 31 -3 46 -3c92 0 175 31 242 83c-85 2 -157 58 -182 136
c12 -3 24 -4 37 -4c18 0 35 2 51 7c-89 18 -156 96 -156 191v2c26 -15 56 -23 88 -24c-52 35 -86 94 -86 162c0 35 9 69 26 97c96 -117 239 -195 401 -203c-3 14 -5 29 -5 44c0 108 87 195 194 195z" />
    <glyph glyph-name="uniE025" unicode="&#xe025;" horiz-adv-x="1494"
d="M1082 721v-94l362 226v-754l-362 226v-94c0 -38 -15 -74 -42 -101s-63 -41 -100 -41h-747c-39 0 -75 14 -101 41c-27 27 -42 63 -42 101v490c0 38 15 74 42 101c26 27 62 41 101 41h747c78 0 142 -63 142 -142zM1012 231v490c0 19 -7 38 -21 51c-14 14 -32 21 -51 21
h-747c-41 0 -73 -31 -73 -72v-490c0 -41 32 -72 73 -72h747c19 0 37 7 51 21c14 13 21 32 21 51zM1084 406l290 -181v502l-290 -181v-140z" />
    <glyph glyph-name="uniE077" unicode="&#xe077;" horiz-adv-x="1109"
d="M555 834c69 0 138 -18 206 -55c53 -28 105 -68 155 -117c83 -83 131 -166 133 -169l10 -18l-10 -17c-2 -4 -50 -86 -133 -169c-50 -49 -102 -89 -155 -117c-68 -36 -137 -54 -206 -54s-139 18 -206 54c-53 28 -105 68 -155 117c-84 83 -132 165 -134 169l-10 17l10 18
c2 3 55 93 145 180l2 1c48 46 98 83 150 109c65 34 131 51 198 51zM555 764c-55 0 -111 -14 -166 -43c-34 -17 -68 -40 -102 -69h1c-1 -1 -14 -14 -36 -31c-59 -57 -101 -117 -120 -146c18 -27 57 -83 112 -137c45 -45 92 -80 139 -105c57 -30 115 -45 172 -45
s115 15 172 45c47 25 93 60 138 105c56 54 95 110 113 137c-18 28 -57 83 -113 138c-45 45 -91 80 -138 105c-57 31 -115 46 -172 46zM555 717c22 0 44 -4 65 -10c-31 -15 -52 -46 -52 -81h-14c-81 0 -150 -69 -150 -151c0 -83 67 -150 150 -150c82 0 151 69 151 150
c0 23 -5 44 -14 64c32 12 56 41 59 76c29 -39 46 -87 46 -139c0 -133 -109 -241 -241 -241c-133 0 -241 108 -241 241c0 132 108 241 241 241zM554 586c8 0 16 -1 23 -3c14 -26 39 -45 70 -49c11 -18 18 -38 18 -59c0 -59 -51 -110 -111 -110s-109 50 -109 110
s50 111 109 111z" />
    <glyph glyph-name="uniE046" unicode="&#xe046;" horiz-adv-x="1212"
d="M50 -296v1544l1112 -772z" />
    <glyph glyph-name="uniE052" unicode="&#xe052;" horiz-adv-x="1247"
d="M217 643c44 0 86 -18 118 -49c31 -32 49 -74 49 -118c0 -45 -18 -87 -49 -118c-32 -32 -74 -49 -118 -49c-92 0 -167 75 -167 167s75 167 167 167zM634 643c92 0 167 -75 167 -167s-75 -167 -167 -167s-166 75 -166 167s74 167 166 167zM1030 643c45 0 87 -18 118 -49
c31 -32 49 -74 49 -118c0 -45 -18 -87 -49 -118c-31 -32 -73 -49 -118 -49c-92 0 -167 75 -167 167s75 167 167 167zM217 573c-54 0 -97 -44 -97 -97c0 -54 43 -97 97 -97c53 0 97 43 97 97c0 53 -44 97 -97 97zM634 573c-53 0 -96 -44 -96 -97c0 -54 43 -97 96 -97
c54 0 97 43 97 97c0 53 -43 97 -97 97zM1030 573c-53 0 -97 -44 -97 -97c0 -54 44 -97 97 -97s97 43 97 97c0 53 -44 97 -97 97z" />
    <glyph glyph-name="uniE045" unicode="&#xe045;" horiz-adv-x="1565"
d="M1511 493c3 -6 4 -12 4 -18s-1 -12 -5 -17c-2 -5 -61 -106 -164 -208c-62 -61 -126 -109 -191 -144c-83 -44 -167 -67 -252 -67c-84 0 -169 23 -252 67c-65 35 -129 83 -190 144c-103 102 -163 203 -165 208c-3 5 -5 11 -5 17s2 12 5 18c1 2 19 32 50 74
c-28 -8 -55 -12 -81 -12c-40 0 -77 10 -109 29c-36 21 -68 53 -94 97v1l-2 3c-2 3 -4 6 -6 10c-3 5 -4 11 -4 17c0 12 7 24 18 30c6 3 11 5 17 5c12 0 24 -7 31 -19l4 -6c0 -2 1 -3 2 -4c0 0 0 -1 1 -1v-1c37 -61 83 -91 142 -91c79 0 162 54 208 88l2 3h1
c60 57 122 102 185 135c79 41 161 62 242 62c85 0 170 -23 252 -67c65 -35 130 -84 191 -145c103 -102 162 -204 165 -208zM1295 298c73 72 123 145 144 177c-21 33 -71 106 -144 178c-56 56 -115 100 -174 131c-72 39 -145 59 -218 59c-70 0 -140 -18 -210 -54
c-58 -30 -115 -72 -170 -125c-79 -76 -134 -154 -156 -189c21 -32 72 -105 144 -177c56 -55 115 -99 174 -131c72 -38 146 -58 218 -58c73 0 146 20 218 58c59 32 118 76 174 131zM1110 686c28 -27 49 -59 64 -95c16 -37 24 -76 24 -116s-8 -79 -24 -116
c-15 -35 -36 -67 -64 -95c-27 -27 -59 -49 -95 -64c-37 -16 -76 -24 -116 -24s-79 8 -116 24c-35 15 -67 37 -95 64c-27 28 -49 60 -64 95c-16 37 -24 76 -24 116s8 79 24 116c15 36 37 68 64 95c28 27 60 49 95 64c37 16 76 24 116 24s79 -8 116 -24c36 -15 68 -37 95 -64z
M1061 314c43 43 67 100 67 161s-24 118 -67 162c-44 43 -101 67 -162 67s-118 -24 -161 -67c-44 -44 -68 -101 -68 -162s24 -118 68 -161c43 -44 100 -68 161 -68s118 24 162 68zM898 628c40 0 79 -17 108 -46s46 -68 46 -108s-16 -79 -46 -108c-29 -28 -67 -44 -108 -44
c-40 0 -79 16 -107 45c-29 28 -45 67 -45 107c0 41 16 79 44 108c29 30 68 46 108 46zM898 392c46 0 84 38 84 82c0 21 -9 43 -25 59s-37 25 -59 25c-44 0 -82 -38 -82 -84c0 -45 37 -82 82 -82z" />
    <glyph glyph-name="uniE059" unicode="&#xe059;" horiz-adv-x="921"
d="M492 1092l25 1l-1 -25l-2 -33c-1 -14 -2 -26 -2 -37c0 -13 1 -25 5 -36c9 -22 29 -44 67 -72s60 -52 71 -76s10 -45 9 -68c-1 -5 -1 -10 -1 -16c0 -10 4 -19 10 -26c6 -6 14 -10 22 -10c9 0 17 4 24 12c6 6 8 14 8 23c0 21 -12 48 -21 65c-21 38 -48 70 -48 70l-59 68
l84 -32c68 -26 117 -56 148 -88c27 -28 40 -58 40 -90v-111v-237v-350c0 -34 -5 -64 -16 -88c-9 -21 -22 -38 -39 -51c-30 -23 -63 -26 -76 -26h-6h-654c-8 0 -16 4 -21 10c-7 8 -9 19 -9 28v170h106l6 -14c11 -30 33 -33 42 -33h5c27 0 36 17 39 28c2 4 3 10 3 15
c0 14 -6 28 -18 37c-9 6 -18 9 -27 9c-24 0 -44 -24 -45 -25l-6 -10l-12 1h-93v190h108l5 -17c4 -18 17 -27 38 -27c16 0 30 6 36 11c9 8 14 22 14 36c0 3 0 6 -1 9c-1 10 -7 24 -22 29c-8 3 -15 5 -22 5c-28 0 -41 -25 -43 -27l-6 -12h-107v188l107 1l5 -16
c7 -21 20 -32 40 -32c6 0 10 1 10 1c27 7 34 26 36 37c2 18 -5 36 -18 45c-10 6 -20 9 -28 9c-23 0 -38 -24 -39 -26l-8 -15l-17 5l-86 19l1 18c0 6 1 61 5 84c14 72 47 102 76 129c23 21 41 38 50 72c3 13 4 23 4 32c0 14 -3 24 -6 30c-4 9 -9 13 -9 13l-93 57l108 -16
c58 -9 90 -46 96 -54c18 -19 27 -43 27 -69s-9 -51 -17 -73s-12 -36 -12 -46c0 -9 3 -14 9 -19c8 -7 16 -10 22 -10c18 0 40 35 46 102c0 8 1 16 1 23c0 37 -9 60 -18 82c-7 20 -15 40 -15 64c0 19 5 41 16 68c25 57 63 86 91 100c31 15 55 16 58 17zM469 1038v3
c-5 -2 -11 -5 -16 -8c-31 -15 -53 -41 -68 -76c-9 -20 -12 -36 -12 -50c0 -17 5 -30 11 -48c9 -24 21 -53 21 -98c0 -53 -11 -97 -28 -126c-16 -28 -39 -44 -64 -44c-17 0 -33 7 -50 20s-26 32 -26 54c0 20 7 41 15 61c8 23 14 42 14 59c0 14 -4 26 -16 39l-1 1v1
c-1 1 -7 8 -17 16c0 -6 1 -12 1 -19c0 -13 -2 -27 -6 -43c-12 -47 -37 -71 -62 -94c-27 -24 -52 -47 -63 -104c-2 -12 -3 -39 -4 -58l36 -8c12 14 35 34 68 34c17 0 34 -5 51 -16c25 -15 40 -44 40 -75c0 -44 -28 -78 -70 -89c-1 0 -9 -2 -21 -2c-34 0 -61 17 -76 48l-31 -1
v-98h36c12 15 36 39 75 39c12 0 25 -3 38 -7c32 -13 52 -43 52 -82c0 -27 -10 -53 -29 -69c-16 -14 -41 -22 -66 -22c-35 0 -62 16 -76 44h-30v-100h38c13 13 39 34 73 34c18 0 36 -6 52 -17c24 -17 38 -45 38 -74c0 -53 -38 -88 -87 -88h-2h-3c-8 0 -23 1 -40 9
c-15 9 -28 22 -37 38h-32v-118h645c8 0 30 2 49 16c25 19 37 54 37 104v698c0 20 -9 39 -27 59c-14 14 -34 29 -58 42l4 -7c18 -33 27 -62 27 -87c0 -27 -10 -44 -20 -54c-16 -17 -36 -26 -57 -26c-20 0 -40 9 -54 23c-15 16 -23 36 -23 58c0 7 0 12 1 18c1 20 1 33 -5 47
c-8 17 -26 36 -57 59c-46 34 -70 61 -82 92c-6 17 -8 34 -8 52c0 13 1 26 2 40z" />
    <glyph glyph-name="uniE078" unicode="&#xe078;" horiz-adv-x="1186"
d="M907 564v90h85v-90h144v-355c0 -33 -27 -60 -60 -60h-63c-33 0 -60 27 -60 60v285h-903v160h86v-90h85v90h86v-90h86v90h80v79h-80v-79h-86v79h-86v-79h-85v79h-86v70h1086v-70h-58v-79h-86v79h-86v-79h-85v-90h86zM735 564v90h85v79h-85v-79h-85v79h-92v-79h-80v-90h86
v90h86v-90h85zM1011 336v-79c0 -11 9 -20 20 -20h28c11 0 20 9 20 20v78c0 11 -9 21 -20 21h-28c-11 0 -20 -9 -20 -20z" />
    <glyph glyph-name="uniE054" unicode="&#xe054;" horiz-adv-x="1179"
d="M825 299l304 -338l-65 -58l-304 338c-27 -20 -57 -37 -89 -50c-55 -23 -114 -35 -174 -35s-119 12 -174 35c-53 22 -101 55 -142 95c-41 41 -73 89 -96 142c-23 55 -35 114 -35 174s12 119 35 174c23 53 55 101 96 142s89 73 142 96c55 23 114 35 174 35s119 -12 174 -35
c53 -23 101 -55 142 -96s73 -89 96 -142c23 -55 35 -114 35 -174s-12 -119 -35 -174c-20 -47 -48 -91 -84 -129zM497 243c96 0 187 37 255 105s105 158 105 254s-37 187 -105 254c-68 68 -159 106 -255 106s-186 -38 -254 -106c-69 -67 -106 -158 -106 -254
c0 -198 161 -359 360 -359zM532 637h170v-69h-170v-171h-70v170h-170v70h170v170h70v-170z" />
    <glyph glyph-name="space" unicode=" " horiz-adv-x="600"
 />
  </font>
</defs>
</svg>
